<svg xmlns="http://www.w3.org/2000/svg" xmlns:xlink="http://www.w3.org/1999/xlink" width="1920" zoomAndPan="magnify" viewBox="0 0 1440 809.999993" height="1080" preserveAspectRatio="xMidYMid meet" version="1.0"><path fill="#c3acd0" d="M 720 0 C 496.320312 0 315 181.320312 315 405 C 315 628.679688 496.320312 810 720 810 C 943.679688 810 1125 628.679688 1125 405 C 1125 181.320312 943.679688 0 720 0 Z M 797.355469 643.707031 C 784.960938 646.097656 780.546875 638.484375 780.546875 631.921875 C 780.546875 623.863281 780.871094 597.457031 780.871094 564.652344 C 780.871094 541.769531 773.054688 526.824219 764.308594 519.25 C 818.699219 513.175781 875.84375 492.4375 875.84375 398.238281 C 875.84375 371.464844 866.40625 349.554688 850.734375 332.425781 C 853.246094 326.226562 861.628906 301.28125 848.304688 267.542969 C 848.304688 267.542969 827.851562 260.941406 781.195312 292.695312 C 761.675781 287.265625 740.777344 284.554688 720.039062 284.429688 C 699.265625 284.554688 678.367188 287.265625 658.886719 292.695312 C 612.230469 260.980469 591.738281 267.542969 591.738281 267.542969 C 578.453125 301.320312 586.835938 326.226562 589.347656 332.425781 C 573.714844 349.554688 564.195312 371.464844 564.195312 398.238281 C 564.195312 492.195312 621.21875 513.214844 675.449219 519.414062 C 668.484375 525.527344 662.167969 536.339844 659.9375 552.175781 C 646.007812 558.453125 610.648438 569.269531 588.859375 531.804688 C 588.859375 531.804688 575.980469 508.273438 551.480469 506.535156 C 551.480469 506.535156 527.625 506.210938 549.820312 521.4375 C 549.820312 521.4375 565.816406 528.96875 576.914062 557.320312 C 576.914062 557.320312 591.25 605.03125 659.210938 590.207031 C 659.332031 610.660156 659.535156 626.089844 659.535156 631.921875 C 659.535156 638.402344 655.078125 645.976562 642.847656 643.746094 C 545.769531 611.308594 475.785156 519.414062 475.785156 411.074219 C 475.785156 275.601562 585.136719 165.847656 720.039062 165.847656 C 854.945312 165.847656 964.296875 275.644531 964.296875 411.074219 C 964.296875 519.371094 894.394531 611.226562 797.394531 643.707031 Z M 797.355469 643.707031 " fill-opacity="1" fill-rule="nonzero"/></svg>