<svg xmlns="http://www.w3.org/2000/svg" xmlns:xlink="http://www.w3.org/1999/xlink" width="1920" zoomAndPan="magnify" viewBox="0 0 1440 809.999993" height="1080" preserveAspectRatio="xMidYMid meet" version="1.0"><defs><clipPath id="a0ccd06702"><path d="M 315 0 L 1125 0 L 1125 810 L 315 810 Z M 315 0 " clip-rule="nonzero"/></clipPath><clipPath id="8451b39004"><path d="M 720 0 C 496.324219 0 315 181.324219 315 405 C 315 628.675781 496.324219 810 720 810 C 943.675781 810 1125 628.675781 1125 405 C 1125 181.324219 943.675781 0 720 0 " clip-rule="nonzero"/></clipPath><clipPath id="e198e88e3f"><path d="M 545.871094 123 L 893 123 L 893 708 L 545.871094 708 Z M 545.871094 123 " clip-rule="nonzero"/></clipPath></defs><g clip-path="url(#a0ccd06702)"><g clip-path="url(#8451b39004)"><path fill="#c3acd0" d="M 315 0 L 1125 0 L 1125 810 L 315 810 Z M 315 0 " fill-opacity="1" fill-rule="nonzero"/></g></g><g clip-path="url(#e198e88e3f)"><path fill="#674188" d="M 879.136719 197.039062 L 806.054688 197.039062 L 806.054688 137.628906 C 806.054688 136.730469 805.964844 135.839844 805.785156 134.957031 C 805.609375 134.078125 805.347656 133.222656 805.003906 132.390625 C 804.65625 131.558594 804.234375 130.769531 803.734375 130.023438 C 803.234375 129.277344 802.664062 128.585938 802.03125 127.949219 C 801.394531 127.3125 800.699219 126.746094 799.953125 126.246094 C 799.203125 125.746094 798.414062 125.324219 797.582031 124.976562 C 796.75 124.632812 795.894531 124.371094 795.011719 124.195312 C 794.128906 124.019531 793.238281 123.929688 792.339844 123.929688 L 645.640625 123.929688 C 644.742188 123.929688 643.847656 124.019531 642.964844 124.195312 C 642.085938 124.371094 641.226562 124.632812 640.394531 124.976562 C 639.566406 125.324219 638.773438 125.746094 638.027344 126.246094 C 637.277344 126.746094 636.585938 127.3125 635.949219 127.949219 C 635.3125 128.585938 634.746094 129.277344 634.246094 130.023438 C 633.742188 130.769531 633.320312 131.558594 632.976562 132.390625 C 632.628906 133.222656 632.371094 134.078125 632.191406 134.957031 C 632.015625 135.839844 631.925781 136.730469 631.925781 137.628906 L 631.925781 197.039062 L 558.84375 197.039062 C 557.941406 197.042969 557.046875 197.132812 556.164062 197.308594 C 555.28125 197.484375 554.421875 197.746094 553.589844 198.09375 C 552.757812 198.4375 551.96875 198.863281 551.21875 199.363281 C 550.472656 199.863281 549.777344 200.433594 549.140625 201.070312 C 548.503906 201.707031 547.9375 202.402344 547.4375 203.148438 C 546.9375 203.898438 546.515625 204.6875 546.167969 205.519531 C 545.824219 206.351562 545.566406 207.210938 545.390625 208.09375 C 545.214844 208.976562 545.125 209.867188 545.125 210.769531 L 545.125 622.089844 C 545.125 622.992188 545.214844 623.882812 545.390625 624.765625 C 545.566406 625.648438 545.824219 626.507812 546.167969 627.339844 C 546.515625 628.171875 546.9375 628.960938 547.4375 629.710938 C 547.9375 630.457031 548.503906 631.152344 549.140625 631.789062 C 549.777344 632.425781 550.472656 632.996094 551.21875 633.496094 C 551.96875 633.996094 552.757812 634.421875 553.589844 634.765625 C 554.421875 635.113281 555.28125 635.375 556.164062 635.550781 C 557.046875 635.726562 557.941406 635.816406 558.84375 635.820312 L 592.960938 635.820312 L 592.960938 663.996094 C 592.996094 665.445312 593.101562 666.890625 593.277344 668.332031 C 593.449219 669.773438 593.695312 671.203125 594.007812 672.621094 C 594.324219 674.035156 594.703125 675.433594 595.152344 676.816406 C 595.601562 678.195312 596.117188 679.550781 596.699219 680.882812 C 597.277344 682.214844 597.921875 683.511719 598.628906 684.78125 C 599.335938 686.050781 600.101562 687.28125 600.925781 688.476562 C 601.75 689.667969 602.632812 690.820312 603.570312 691.929688 C 604.507812 693.039062 605.496094 694.101562 606.535156 695.117188 C 607.574219 696.128906 608.660156 697.089844 609.792969 698 C 610.925781 698.910156 612.101562 699.761719 613.316406 700.554688 C 614.53125 701.351562 615.78125 702.085938 617.070312 702.761719 C 618.355469 703.433594 619.671875 704.046875 621.019531 704.59375 C 622.363281 705.140625 623.734375 705.621094 625.125 706.035156 C 626.519531 706.453125 627.925781 706.796875 629.351562 707.078125 C 630.777344 707.355469 632.214844 707.566406 633.660156 707.707031 C 635.109375 707.847656 636.558594 707.917969 638.011719 707.917969 C 639.464844 707.917969 640.914062 707.847656 642.359375 707.707031 C 643.804688 707.566406 645.242188 707.355469 646.667969 707.078125 C 648.09375 706.800781 649.503906 706.453125 650.894531 706.035156 C 652.289062 705.621094 653.65625 705.140625 655.003906 704.59375 C 656.347656 704.046875 657.664062 703.433594 658.949219 702.761719 C 660.238281 702.085938 661.488281 701.351562 662.703125 700.554688 C 663.917969 699.761719 665.09375 698.910156 666.226562 698 C 667.359375 697.089844 668.445312 696.128906 669.484375 695.117188 C 670.523438 694.101562 671.515625 693.039062 672.449219 691.929688 C 673.386719 690.820312 674.269531 689.667969 675.09375 688.476562 C 675.921875 687.28125 676.6875 686.050781 677.390625 684.78125 C 678.097656 683.511719 678.742188 682.214844 679.324219 680.882812 C 679.902344 679.550781 680.417969 678.195312 680.867188 676.816406 C 681.316406 675.433594 681.699219 674.035156 682.011719 672.621094 C 682.324219 671.203125 682.570312 669.773438 682.746094 668.332031 C 682.921875 666.890625 683.027344 665.445312 683.0625 663.996094 L 683.0625 635.820312 L 754.972656 635.820312 L 754.972656 663.996094 C 755.007812 665.445312 755.113281 666.890625 755.289062 668.332031 C 755.460938 669.773438 755.707031 671.203125 756.019531 672.621094 C 756.335938 674.035156 756.714844 675.433594 757.164062 676.816406 C 757.613281 678.195312 758.128906 679.550781 758.710938 680.882812 C 759.289062 682.210938 759.933594 683.511719 760.640625 684.78125 C 761.347656 686.050781 762.113281 687.28125 762.9375 688.476562 C 763.761719 689.667969 764.644531 690.820312 765.582031 691.929688 C 766.519531 693.039062 767.507812 694.101562 768.546875 695.117188 C 769.585938 696.128906 770.671875 697.089844 771.804688 698 C 772.9375 698.910156 774.113281 699.761719 775.328125 700.554688 C 776.542969 701.351562 777.796875 702.085938 779.082031 702.761719 C 780.367188 703.433594 781.683594 704.046875 783.03125 704.59375 C 784.375 705.140625 785.746094 705.621094 787.136719 706.035156 C 788.53125 706.453125 789.9375 706.796875 791.363281 707.078125 C 792.789062 707.355469 794.226562 707.566406 795.671875 707.707031 C 797.121094 707.847656 798.570312 707.914062 800.023438 707.914062 C 801.476562 707.914062 802.925781 707.847656 804.371094 707.707031 C 805.816406 707.566406 807.253906 707.355469 808.679688 707.078125 C 810.105469 706.796875 811.515625 706.453125 812.90625 706.035156 C 814.296875 705.621094 815.667969 705.140625 817.015625 704.59375 C 818.359375 704.046875 819.675781 703.433594 820.960938 702.761719 C 822.25 702.085938 823.5 701.351562 824.714844 700.554688 C 825.929688 699.761719 827.105469 698.910156 828.238281 698 C 829.371094 697.089844 830.457031 696.128906 831.496094 695.117188 C 832.535156 694.101562 833.527344 693.039062 834.460938 691.929688 C 835.398438 690.820312 836.28125 689.667969 837.105469 688.476562 C 837.933594 687.28125 838.699219 686.050781 839.402344 684.78125 C 840.109375 683.511719 840.753906 682.210938 841.335938 680.882812 C 841.914062 679.550781 842.429688 678.195312 842.878906 676.816406 C 843.328125 675.433594 843.710938 674.035156 844.023438 672.621094 C 844.335938 671.203125 844.582031 669.773438 844.757812 668.332031 C 844.933594 666.890625 845.039062 665.445312 845.074219 663.996094 L 845.074219 635.820312 L 879.191406 635.820312 C 880.089844 635.816406 880.984375 635.726562 881.867188 635.550781 C 882.75 635.375 883.609375 635.113281 884.441406 634.765625 C 885.273438 634.421875 886.0625 633.996094 886.8125 633.496094 C 887.5625 632.996094 888.253906 632.425781 888.890625 631.789062 C 889.527344 631.152344 890.09375 630.457031 890.597656 629.710938 C 891.097656 628.960938 891.519531 628.167969 891.863281 627.335938 C 892.207031 626.507812 892.46875 625.648438 892.644531 624.765625 C 892.820312 623.882812 892.90625 622.992188 892.90625 622.089844 L 892.90625 210.769531 C 892.90625 209.867188 892.816406 208.972656 892.640625 208.085938 C 892.464844 207.203125 892.203125 206.34375 891.859375 205.507812 C 891.511719 204.675781 891.085938 203.882812 890.585938 203.132812 C 890.082031 202.382812 889.511719 201.6875 888.871094 201.050781 C 888.230469 200.414062 887.535156 199.84375 886.785156 199.34375 C 886.03125 198.84375 885.238281 198.421875 884.402344 198.078125 C 883.570312 197.734375 882.707031 197.472656 881.820312 197.300781 C 880.933594 197.125 880.039062 197.039062 879.136719 197.039062 Z M 659.382812 151.332031 L 778.59375 151.332031 L 778.59375 197.039062 L 659.382812 197.039062 Z M 655.601562 663.996094 C 655.558594 665.121094 655.40625 666.230469 655.148438 667.328125 C 654.890625 668.421875 654.53125 669.484375 654.070312 670.511719 C 653.609375 671.539062 653.054688 672.511719 652.40625 673.433594 C 651.757812 674.355469 651.027344 675.203125 650.214844 675.984375 C 649.402344 676.765625 648.523438 677.460938 647.578125 678.074219 C 646.628906 678.683594 645.632812 679.203125 644.589844 679.621094 C 643.542969 680.042969 642.46875 680.359375 641.359375 680.574219 C 640.253906 680.789062 639.136719 680.894531 638.011719 680.894531 C 636.882812 680.894531 635.765625 680.789062 634.660156 680.574219 C 633.554688 680.359375 632.476562 680.042969 631.433594 679.621094 C 630.386719 679.203125 629.390625 678.683594 628.445312 678.074219 C 627.496094 677.460938 626.617188 676.765625 625.804688 675.984375 C 624.992188 675.203125 624.261719 674.355469 623.613281 673.433594 C 622.964844 672.511719 622.410156 671.539062 621.949219 670.511719 C 621.488281 669.484375 621.128906 668.421875 620.871094 667.328125 C 620.613281 666.230469 620.460938 665.121094 620.417969 663.996094 L 620.417969 635.820312 L 655.601562 635.820312 Z M 635.464844 608.386719 L 635.464844 430.132812 L 802.511719 430.132812 L 802.511719 608.386719 Z M 817.558594 663.996094 C 817.515625 665.121094 817.367188 666.230469 817.109375 667.328125 C 816.851562 668.421875 816.492188 669.484375 816.03125 670.511719 C 815.570312 671.539062 815.011719 672.511719 814.363281 673.433594 C 813.714844 674.355469 812.984375 675.203125 812.171875 675.984375 C 811.359375 676.765625 810.480469 677.460938 809.535156 678.074219 C 808.589844 678.6875 807.59375 679.203125 806.546875 679.621094 C 805.5 680.042969 804.425781 680.359375 803.320312 680.574219 C 802.210938 680.789062 801.097656 680.898438 799.96875 680.898438 C 798.839844 680.898438 797.726562 680.789062 796.617188 680.574219 C 795.511719 680.359375 794.4375 680.042969 793.390625 679.621094 C 792.34375 679.203125 791.347656 678.6875 790.402344 678.074219 C 789.457031 677.460938 788.578125 676.765625 787.765625 675.984375 C 786.953125 675.203125 786.222656 674.355469 785.574219 673.433594 C 784.925781 672.511719 784.367188 671.539062 783.90625 670.511719 C 783.445312 669.484375 783.085938 668.421875 782.828125 667.328125 C 782.570312 666.230469 782.421875 665.121094 782.378906 663.996094 L 782.378906 635.820312 L 817.535156 635.820312 Z M 865.5 608.386719 L 830.078125 608.386719 L 830.078125 416.429688 C 830.078125 415.53125 829.988281 414.640625 829.8125 413.757812 C 829.636719 412.875 829.378906 412.015625 829.035156 411.1875 C 828.6875 410.355469 828.265625 409.566406 827.765625 408.816406 C 827.265625 408.070312 826.699219 407.375 826.0625 406.742188 C 825.421875 406.105469 824.730469 405.535156 823.980469 405.035156 C 823.234375 404.535156 822.441406 404.113281 821.609375 403.769531 C 820.777344 403.425781 819.921875 403.167969 819.039062 402.992188 C 818.152344 402.816406 817.261719 402.726562 816.363281 402.726562 L 621.9375 402.726562 C 621.027344 402.714844 620.125 402.789062 619.230469 402.953125 C 618.335938 403.121094 617.46875 403.371094 616.621094 403.707031 C 615.777344 404.046875 614.976562 404.464844 614.214844 404.960938 C 613.453125 405.460938 612.75 406.027344 612.101562 406.664062 C 611.453125 407.300781 610.871094 407.996094 610.363281 408.75 C 609.851562 409.503906 609.421875 410.296875 609.070312 411.136719 C 608.71875 411.972656 608.457031 412.839844 608.277344 413.730469 C 608.097656 414.621094 608.007812 415.519531 608.007812 416.429688 L 608.007812 608.386719 L 572.503906 608.386719 L 572.503906 224.46875 L 865.472656 224.46875 Z M 865.5 608.386719 " fill-opacity="1" fill-rule="nonzero"/></g><path fill="#674188" d="M 763.386719 256.796875 C 761.578125 256.023438 759.726562 255.375 757.828125 254.851562 C 755.929688 254.332031 754.007812 253.941406 752.054688 253.683594 C 750.105469 253.425781 748.144531 253.300781 746.179688 253.308594 C 744.210938 253.320312 742.253906 253.460938 740.304688 253.738281 C 738.355469 254.015625 736.4375 254.421875 734.542969 254.960938 C 732.652344 255.5 730.804688 256.167969 729.003906 256.957031 C 727.203125 257.75 725.460938 258.660156 723.785156 259.6875 C 722.109375 260.714844 720.511719 261.855469 718.988281 263.101562 C 717.46875 261.851562 715.871094 260.710938 714.195312 259.683594 C 712.519531 258.652344 710.78125 257.742188 708.980469 256.949219 C 707.175781 256.15625 705.332031 255.488281 703.4375 254.949219 C 701.546875 254.410156 699.625 254.003906 697.675781 253.726562 C 695.726562 253.449219 693.769531 253.304688 691.800781 253.296875 C 689.832031 253.289062 687.875 253.414062 685.921875 253.671875 C 683.972656 253.933594 682.046875 254.324219 680.148438 254.847656 C 678.253906 255.371094 676.398438 256.019531 674.589844 256.796875 C 672.90625 257.546875 671.269531 258.390625 669.679688 259.328125 C 668.089844 260.265625 666.558594 261.289062 665.082031 262.398438 C 663.609375 263.507812 662.203125 264.695312 660.863281 265.964844 C 659.523438 267.234375 658.261719 268.574219 657.074219 269.984375 C 655.882812 271.398438 654.78125 272.871094 653.761719 274.40625 C 652.738281 275.945312 651.808594 277.53125 650.96875 279.171875 C 650.125 280.816406 649.382812 282.5 648.730469 284.222656 C 648.082031 285.949219 647.53125 287.707031 647.078125 289.496094 C 646.667969 291.089844 646.351562 292.703125 646.121094 294.335938 C 645.894531 295.96875 645.761719 297.605469 645.71875 299.253906 C 645.675781 300.898438 645.726562 302.542969 645.871094 304.183594 C 646.015625 305.824219 646.25 307.453125 646.578125 309.066406 C 646.90625 310.683594 647.320312 312.273438 647.828125 313.839844 C 648.335938 315.410156 648.929688 316.941406 649.613281 318.441406 C 650.292969 319.941406 651.054688 321.402344 651.902344 322.816406 C 652.746094 324.230469 653.671875 325.589844 654.667969 326.902344 C 672.15625 345.671875 690.570312 363.488281 709.90625 380.351562 C 710.53125 380.90625 711.199219 381.402344 711.914062 381.835938 C 712.625 382.269531 713.375 382.636719 714.152344 382.933594 C 714.933594 383.230469 715.734375 383.457031 716.558594 383.605469 C 717.378906 383.757812 718.207031 383.832031 719.042969 383.832031 C 719.878906 383.832031 720.707031 383.757812 721.527344 383.605469 C 722.351562 383.457031 723.152344 383.230469 723.929688 382.933594 C 724.710938 382.636719 725.460938 382.269531 726.171875 381.835938 C 726.886719 381.402344 727.554688 380.90625 728.179688 380.351562 C 747.515625 363.488281 765.929688 345.671875 783.414062 326.902344 C 784.410156 325.589844 785.328125 324.226562 786.171875 322.808594 C 787.011719 321.394531 787.769531 319.933594 788.445312 318.433594 C 789.121094 316.929688 789.710938 315.398438 790.214844 313.828125 C 790.714844 312.261719 791.128906 310.667969 791.453125 309.054688 C 791.777344 307.441406 792.007812 305.8125 792.144531 304.171875 C 792.285156 302.53125 792.332031 300.890625 792.285156 299.242188 C 792.238281 297.597656 792.097656 295.960938 791.867188 294.328125 C 791.636719 292.699219 791.3125 291.089844 790.898438 289.496094 C 790.449219 287.707031 789.898438 285.949219 789.246094 284.222656 C 788.597656 282.5 787.851562 280.816406 787.011719 279.171875 C 786.171875 277.53125 785.238281 275.945312 784.21875 274.40625 C 783.199219 272.871094 782.09375 271.398438 780.90625 269.984375 C 779.71875 268.574219 778.457031 267.234375 777.117188 265.964844 C 775.777344 264.695312 774.371094 263.507812 772.894531 262.398438 C 771.421875 261.289062 769.890625 260.265625 768.300781 259.328125 C 766.710938 258.390625 765.074219 257.546875 763.386719 256.796875 Z M 761.601562 310.140625 C 748.121094 324.726562 733.917969 338.570312 718.988281 351.671875 C 704.0625 338.570312 689.855469 324.726562 676.375 310.140625 C 675.636719 309.144531 675.019531 308.078125 674.523438 306.941406 C 674.027344 305.804688 673.664062 304.625 673.433594 303.40625 C 673.203125 302.1875 673.109375 300.960938 673.15625 299.722656 C 673.203125 298.480469 673.390625 297.261719 673.710938 296.066406 C 674.136719 294.480469 674.730469 292.964844 675.496094 291.511719 C 676.265625 290.0625 677.183594 288.71875 678.257812 287.476562 C 679.328125 286.234375 680.527344 285.128906 681.851562 284.15625 C 683.175781 283.1875 684.589844 282.375 686.097656 281.726562 C 696.511719 276.9375 711.105469 291.621094 708.441406 290.425781 C 708.773438 290.800781 709.125 291.160156 709.496094 291.496094 C 709.867188 291.835938 710.253906 292.152344 710.660156 292.453125 C 711.0625 292.75 711.484375 293.023438 711.917969 293.277344 C 712.351562 293.53125 712.796875 293.761719 713.253906 293.964844 C 713.710938 294.171875 714.179688 294.355469 714.65625 294.511719 C 715.132812 294.667969 715.617188 294.796875 716.109375 294.902344 C 716.597656 295.007812 717.09375 295.089844 717.59375 295.140625 C 718.09375 295.195312 718.59375 295.21875 719.097656 295.21875 C 719.597656 295.21875 720.097656 295.195312 720.597656 295.140625 C 721.097656 295.089844 721.59375 295.007812 722.082031 294.902344 C 722.574219 294.796875 723.058594 294.667969 723.535156 294.511719 C 724.011719 294.355469 724.480469 294.171875 724.9375 293.964844 C 725.394531 293.761719 725.84375 293.53125 726.277344 293.277344 C 726.707031 293.023438 727.128906 292.75 727.53125 292.453125 C 727.9375 292.152344 728.324219 291.835938 728.695312 291.496094 C 729.066406 291.160156 729.417969 290.800781 729.75 290.425781 C 729.75 290.425781 741.546875 276.910156 752.09375 281.726562 C 753.601562 282.375 755.019531 283.1875 756.339844 284.15625 C 757.664062 285.128906 758.863281 286.234375 759.933594 287.476562 C 761.007812 288.71875 761.925781 290.0625 762.695312 291.511719 C 763.460938 292.964844 764.058594 294.480469 764.480469 296.066406 C 764.789062 297.269531 764.957031 298.496094 764.988281 299.738281 C 765.015625 300.984375 764.90625 302.214844 764.660156 303.433594 C 764.410156 304.652344 764.027344 305.828125 763.511719 306.960938 C 762.996094 308.089844 762.359375 309.152344 761.601562 310.140625 Z M 761.601562 310.140625 " fill-opacity="1" fill-rule="nonzero"/></svg>