<svg xmlns="http://www.w3.org/2000/svg" xmlns:xlink="http://www.w3.org/1999/xlink" width="1920" zoomAndPan="magnify" viewBox="0 0 1440 809.999993" height="1080" preserveAspectRatio="xMidYMid meet" version="1.0"><defs><clipPath id="b2b0675576"><path d="M 315 0 L 1125 0 L 1125 810 L 315 810 Z M 315 0 " clip-rule="nonzero"/></clipPath><clipPath id="a398a70a1c"><path d="M 720 0 C 496.324219 0 315 181.324219 315 405 C 315 628.675781 496.324219 810 720 810 C 943.675781 810 1125 628.675781 1125 405 C 1125 181.324219 943.675781 0 720 0 " clip-rule="nonzero"/></clipPath><clipPath id="c48085ed31"><path d="M 428 113 L 1015.160156 113 L 1015.160156 700.160156 L 428 700.160156 Z M 428 113 " clip-rule="nonzero"/></clipPath></defs><g clip-path="url(#b2b0675576)"><g clip-path="url(#a398a70a1c)"><path fill="#c3acd0" d="M 315 0 L 1125 0 L 1125 810 L 315 810 Z M 315 0 " fill-opacity="1" fill-rule="nonzero"/></g></g><g clip-path="url(#c48085ed31)"><path fill="#674188" d="M 1010.007812 465.90625 L 742.605469 245.636719 C 760.703125 229.695312 777.859375 212.792969 794.0625 194.925781 C 795.167969 193.476562 796.1875 191.96875 797.125 190.402344 C 798.058594 188.835938 798.902344 187.21875 799.65625 185.558594 C 800.40625 183.898438 801.0625 182.199219 801.625 180.464844 C 802.183594 178.726562 802.648438 176.964844 803.007812 175.175781 C 803.371094 173.390625 803.628906 171.585938 803.789062 169.769531 C 803.945312 167.953125 804 166.132812 803.953125 164.308594 C 803.90625 162.484375 803.757812 160.671875 803.503906 158.863281 C 803.25 157.058594 802.898438 155.269531 802.441406 153.503906 C 801.9375 151.515625 801.324219 149.5625 800.597656 147.644531 C 799.875 145.726562 799.042969 143.855469 798.105469 142.027344 C 797.167969 140.203125 796.132812 138.4375 794.996094 136.730469 C 793.859375 135.023438 792.632812 133.382812 791.308594 131.816406 C 789.988281 130.246094 788.582031 128.757812 787.09375 127.347656 C 785.605469 125.9375 784.039062 124.613281 782.402344 123.378906 C 780.761719 122.148438 779.058594 121.007812 777.292969 119.96875 C 775.523438 118.925781 773.703125 117.988281 771.832031 117.152344 C 769.769531 116.28125 767.65625 115.558594 765.496094 114.980469 C 763.332031 114.402344 761.140625 113.980469 758.917969 113.710938 C 756.695312 113.4375 754.464844 113.324219 752.226562 113.367188 C 749.988281 113.40625 747.765625 113.605469 745.554688 113.957031 C 743.34375 114.308594 741.167969 114.8125 739.03125 115.46875 C 736.890625 116.125 734.804688 116.925781 732.777344 117.875 C 730.75 118.820312 728.796875 119.90625 726.921875 121.125 C 725.042969 122.347656 723.261719 123.691406 721.574219 125.160156 C 719.882812 123.695312 718.101562 122.351562 716.222656 121.136719 C 714.34375 119.917969 712.394531 118.835938 710.363281 117.890625 C 708.335938 116.945312 706.253906 116.144531 704.113281 115.488281 C 701.972656 114.835938 699.800781 114.332031 697.589844 113.980469 C 695.378906 113.628906 693.15625 113.429688 690.917969 113.386719 C 688.683594 113.34375 686.453125 113.457031 684.230469 113.726562 C 682.011719 113.996094 679.816406 114.417969 677.65625 114.992188 C 675.492188 115.5625 673.378906 116.285156 671.316406 117.152344 C 669.445312 117.988281 667.625 118.925781 665.855469 119.96875 C 664.089844 121.007812 662.386719 122.148438 660.746094 123.378906 C 659.109375 124.613281 657.542969 125.9375 656.054688 127.347656 C 654.566406 128.757812 653.160156 130.246094 651.839844 131.816406 C 650.515625 133.382812 649.289062 135.023438 648.152344 136.730469 C 647.015625 138.4375 645.980469 140.203125 645.042969 142.027344 C 644.105469 143.855469 643.273438 145.726562 642.550781 147.644531 C 641.824219 149.5625 641.210938 151.515625 640.703125 153.503906 C 640.25 155.269531 639.898438 157.058594 639.644531 158.863281 C 639.390625 160.671875 639.242188 162.484375 639.195312 164.308594 C 639.148438 166.132812 639.203125 167.953125 639.359375 169.769531 C 639.519531 171.585938 639.777344 173.390625 640.140625 175.175781 C 640.5 176.964844 640.960938 178.726562 641.523438 180.464844 C 642.085938 182.199219 642.742188 183.898438 643.492188 185.558594 C 644.246094 187.21875 645.089844 188.835938 646.023438 190.402344 C 646.960938 191.96875 647.980469 193.476562 649.085938 194.925781 C 665.289062 212.792969 682.441406 229.695312 700.542969 245.636719 L 433.140625 465.90625 C 432.441406 466.480469 431.800781 467.117188 431.226562 467.816406 C 430.652344 468.519531 430.152344 469.269531 429.722656 470.066406 C 429.296875 470.867188 428.953125 471.699219 428.6875 472.566406 C 428.425781 473.433594 428.25 474.320312 428.160156 475.222656 C 428.070312 476.125 428.070312 477.023438 428.160156 477.925781 C 428.246094 478.828125 428.421875 479.714844 428.6875 480.582031 C 428.949219 481.449219 429.292969 482.28125 429.71875 483.082031 C 430.148438 483.878906 430.648438 484.632812 431.222656 485.332031 C 431.796875 486.03125 432.433594 486.671875 433.136719 487.246094 C 433.835938 487.820312 434.585938 488.324219 435.382812 488.75 C 436.183594 489.179688 437.015625 489.523438 437.882812 489.785156 C 438.75 490.050781 439.636719 490.226562 440.539062 490.316406 C 441.441406 490.40625 442.339844 490.40625 443.242188 490.316406 C 444.144531 490.230469 445.03125 490.054688 445.898438 489.792969 C 446.765625 489.53125 447.597656 489.183594 448.398438 488.757812 C 449.199219 488.332031 449.949219 487.832031 450.648438 487.257812 L 501.492188 445.355469 L 501.492188 686.28125 C 501.484375 687.1875 501.566406 688.089844 501.738281 688.980469 C 501.910156 689.875 502.167969 690.742188 502.511719 691.582031 C 502.851562 692.425781 503.273438 693.222656 503.777344 693.984375 C 504.277344 694.742188 504.847656 695.441406 505.488281 696.085938 C 506.128906 696.730469 506.824219 697.308594 507.578125 697.816406 C 508.335938 698.324219 509.128906 698.75 509.96875 699.101562 C 510.808594 699.449219 511.671875 699.714844 512.566406 699.890625 C 513.457031 700.070312 514.355469 700.160156 515.265625 700.160156 L 648.953125 700.160156 C 649.855469 700.15625 650.746094 700.066406 651.632812 699.890625 C 652.515625 699.710938 653.375 699.449219 654.207031 699.105469 C 655.039062 698.757812 655.832031 698.335938 656.582031 697.832031 C 657.332031 697.332031 658.027344 696.761719 658.664062 696.125 C 659.300781 695.488281 659.871094 694.792969 660.371094 694.042969 C 660.875 693.292969 661.296875 692.503906 661.644531 691.667969 C 661.988281 690.835938 662.25 689.976562 662.429688 689.09375 C 662.605469 688.207031 662.695312 687.316406 662.695312 686.414062 L 662.695312 569.78125 C 662.695312 567.851562 662.792969 565.929688 662.980469 564.007812 C 663.167969 562.089844 663.453125 560.183594 663.828125 558.292969 C 664.203125 556.402344 664.671875 554.535156 665.230469 552.6875 C 665.792969 550.84375 666.441406 549.03125 667.179688 547.25 C 667.917969 545.46875 668.742188 543.726562 669.648438 542.027344 C 670.558594 540.324219 671.546875 538.671875 672.621094 537.070312 C 673.691406 535.464844 674.839844 533.917969 676.0625 532.429688 C 677.285156 530.9375 678.578125 529.511719 679.941406 528.148438 C 681.304688 526.785156 682.730469 525.492188 684.222656 524.269531 C 685.714844 523.042969 687.261719 521.898438 688.863281 520.824219 C 690.46875 519.753906 692.117188 518.765625 693.820312 517.855469 C 695.519531 516.945312 697.261719 516.121094 699.042969 515.386719 C 700.824219 514.648438 702.636719 514 704.484375 513.4375 C 706.328125 512.878906 708.195312 512.410156 710.085938 512.035156 C 711.980469 511.660156 713.882812 511.375 715.804688 511.1875 C 717.722656 510.996094 719.644531 510.902344 721.574219 510.902344 C 723.503906 510.902344 725.425781 510.996094 727.34375 511.1875 C 729.265625 511.375 731.167969 511.660156 733.058594 512.035156 C 734.953125 512.410156 736.820312 512.878906 738.664062 513.4375 C 740.511719 514 742.324219 514.648438 744.105469 515.386719 C 745.886719 516.121094 747.628906 516.945312 749.328125 517.855469 C 751.027344 518.765625 752.679688 519.753906 754.285156 520.824219 C 755.886719 521.898438 757.433594 523.042969 758.925781 524.269531 C 760.414062 525.492188 761.84375 526.785156 763.207031 528.148438 C 764.570312 529.511719 765.863281 530.9375 767.085938 532.429688 C 768.308594 533.917969 769.457031 535.464844 770.527344 537.070312 C 771.601562 538.671875 772.589844 540.324219 773.5 542.027344 C 774.40625 543.726562 775.230469 545.46875 775.96875 547.25 C 776.707031 549.03125 777.355469 550.84375 777.914062 552.6875 C 778.476562 554.535156 778.945312 556.402344 779.320312 558.292969 C 779.695312 560.183594 779.980469 562.089844 780.167969 564.007812 C 780.355469 565.929688 780.453125 567.851562 780.449219 569.78125 L 780.449219 686.28125 C 780.453125 687.183594 780.542969 688.074219 780.71875 688.960938 C 780.898438 689.84375 781.160156 690.703125 781.503906 691.535156 C 781.851562 692.367188 782.273438 693.160156 782.777344 693.910156 C 783.277344 694.660156 783.847656 695.351562 784.484375 695.992188 C 785.121094 696.628906 785.816406 697.199219 786.566406 697.699219 C 787.316406 698.203125 788.105469 698.625 788.941406 698.972656 C 789.773438 699.316406 790.632812 699.578125 791.515625 699.757812 C 792.402344 699.933594 793.292969 700.023438 794.195312 700.023438 L 927.882812 700.023438 C 928.785156 700.023438 929.679688 699.9375 930.566406 699.761719 C 931.453125 699.585938 932.3125 699.324219 933.148438 698.980469 C 933.984375 698.632812 934.777344 698.210938 935.527344 697.710938 C 936.277344 697.207031 936.972656 696.640625 937.613281 696 C 938.25 695.363281 938.824219 694.667969 939.324219 693.917969 C 939.828125 693.167969 940.253906 692.375 940.601562 691.542969 C 940.945312 690.707031 941.207031 689.847656 941.386719 688.960938 C 941.5625 688.078125 941.652344 687.183594 941.65625 686.28125 L 941.65625 445.246094 L 992.5 487.148438 C 993.199219 487.722656 993.949219 488.222656 994.75 488.648438 C 995.550781 489.074219 996.382812 489.417969 997.25 489.683594 C 998.117188 489.945312 999.003906 490.117188 999.902344 490.207031 C 1000.804688 490.292969 1001.707031 490.292969 1002.609375 490.203125 C 1003.511719 490.113281 1004.394531 489.9375 1005.261719 489.675781 C 1006.128906 489.410156 1006.960938 489.066406 1007.757812 488.636719 C 1008.558594 488.210938 1009.308594 487.707031 1010.007812 487.132812 C 1010.707031 486.558594 1011.34375 485.921875 1011.917969 485.21875 C 1012.492188 484.519531 1012.996094 483.769531 1013.421875 482.96875 C 1013.847656 482.171875 1014.191406 481.339844 1014.457031 480.472656 C 1014.71875 479.605469 1014.894531 478.71875 1014.984375 477.816406 C 1015.070312 476.917969 1015.070312 476.015625 1014.984375 475.113281 C 1014.894531 474.210938 1014.71875 473.328125 1014.457031 472.460938 C 1014.191406 471.59375 1013.847656 470.761719 1013.421875 469.960938 C 1012.996094 469.160156 1012.492188 468.414062 1011.917969 467.710938 C 1011.34375 467.011719 1010.707031 466.375 1010.007812 465.796875 Z M 670.863281 178.113281 C 669.910156 176.835938 669.113281 175.472656 668.46875 174.015625 C 667.828125 172.5625 667.355469 171.054688 667.054688 169.488281 C 666.753906 167.925781 666.632812 166.351562 666.691406 164.761719 C 666.746094 163.171875 666.980469 161.605469 667.394531 160.070312 C 667.914062 158.09375 668.652344 156.199219 669.601562 154.390625 C 670.550781 152.582031 671.691406 150.902344 673.023438 149.351562 C 674.355469 147.796875 675.84375 146.417969 677.488281 145.203125 C 679.132812 143.988281 680.894531 142.976562 682.769531 142.160156 C 696.726562 135.757812 708.257812 151.554688 710.925781 152.835938 C 711.246094 153.222656 711.589844 153.59375 711.953125 153.941406 C 712.316406 154.292969 712.699219 154.621094 713.097656 154.925781 C 713.496094 155.234375 713.910156 155.519531 714.339844 155.78125 C 714.773438 156.042969 715.214844 156.28125 715.671875 156.496094 C 716.128906 156.710938 716.59375 156.898438 717.070312 157.058594 C 717.546875 157.222656 718.03125 157.359375 718.523438 157.46875 C 719.015625 157.578125 719.511719 157.660156 720.011719 157.714844 C 720.515625 157.769531 721.015625 157.796875 721.519531 157.796875 C 722.023438 157.796875 722.527344 157.769531 723.027344 157.714844 C 723.527344 157.660156 724.023438 157.578125 724.515625 157.46875 C 725.007812 157.359375 725.492188 157.222656 725.96875 157.058594 C 726.445312 156.898438 726.914062 156.710938 727.371094 156.496094 C 727.828125 156.28125 728.269531 156.042969 728.699219 155.78125 C 729.128906 155.519531 729.546875 155.234375 729.945312 154.925781 C 730.34375 154.621094 730.722656 154.292969 731.085938 153.941406 C 731.449219 153.59375 731.792969 153.222656 732.117188 152.835938 C 732.277344 152.675781 746.609375 135.890625 760.328125 142.160156 C 762.203125 142.976562 763.960938 143.988281 765.605469 145.203125 C 767.25 146.417969 768.738281 147.796875 770.070312 149.351562 C 771.402344 150.902344 772.542969 152.582031 773.492188 154.390625 C 774.445312 156.199219 775.179688 158.09375 775.699219 160.070312 C 776.113281 161.605469 776.347656 163.167969 776.402344 164.757812 C 776.460938 166.347656 776.34375 167.921875 776.042969 169.484375 C 775.746094 171.046875 775.277344 172.554688 774.636719 174.011719 C 774 175.46875 773.207031 176.835938 772.257812 178.113281 C 756.203125 195.464844 739.308594 211.960938 721.574219 227.59375 C 703.824219 211.96875 686.917969 195.476562 670.863281 178.113281 Z M 914.113281 672.507812 L 807.96875 672.507812 L 807.96875 569.78125 C 807.96875 568.367188 807.933594 566.953125 807.863281 565.542969 C 807.792969 564.128906 807.6875 562.722656 807.546875 561.316406 C 807.410156 559.910156 807.234375 558.507812 807.027344 557.109375 C 806.820312 555.710938 806.578125 554.316406 806.300781 552.933594 C 806.023438 551.546875 805.714844 550.167969 805.371094 548.796875 C 805.027344 547.425781 804.648438 546.0625 804.238281 544.710938 C 803.828125 543.359375 803.382812 542.015625 802.90625 540.6875 C 802.429688 539.355469 801.921875 538.039062 801.378906 536.730469 C 800.839844 535.425781 800.265625 534.132812 799.660156 532.855469 C 799.054688 531.578125 798.417969 530.316406 797.753906 529.070312 C 797.085938 527.824219 796.390625 526.59375 795.664062 525.382812 C 794.933594 524.171875 794.179688 522.976562 793.394531 521.804688 C 792.609375 520.628906 791.792969 519.472656 790.953125 518.335938 C 790.109375 517.203125 789.238281 516.089844 788.34375 514.996094 C 787.445312 513.902344 786.523438 512.835938 785.574219 511.789062 C 784.625 510.742188 783.648438 509.71875 782.648438 508.71875 C 781.648438 507.71875 780.625 506.746094 779.578125 505.796875 C 778.53125 504.847656 777.460938 503.925781 776.367188 503.027344 C 775.273438 502.132812 774.160156 501.261719 773.023438 500.421875 C 771.890625 499.578125 770.734375 498.765625 769.558594 497.980469 C 768.382812 497.195312 767.191406 496.4375 765.976562 495.710938 C 764.765625 494.984375 763.535156 494.289062 762.289062 493.625 C 761.042969 492.957031 759.78125 492.324219 758.5 491.71875 C 757.222656 491.113281 755.933594 490.542969 754.625 490 C 753.320312 489.460938 752 488.953125 750.671875 488.476562 C 749.339844 488 747.996094 487.554688 746.644531 487.144531 C 745.292969 486.734375 743.929688 486.359375 742.558594 486.015625 C 741.1875 485.671875 739.808594 485.363281 738.421875 485.085938 C 737.039062 484.8125 735.644531 484.570312 734.246094 484.363281 C 732.847656 484.15625 731.445312 483.984375 730.039062 483.84375 C 728.632812 483.707031 727.222656 483.601562 725.8125 483.53125 C 724.398438 483.464844 722.988281 483.429688 721.574219 483.429688 C 720.160156 483.429688 718.746094 483.464844 717.335938 483.53125 C 715.925781 483.601562 714.515625 483.707031 713.109375 483.84375 C 711.703125 483.984375 710.300781 484.15625 708.902344 484.363281 C 707.503906 484.570312 706.109375 484.8125 704.726562 485.085938 C 703.339844 485.363281 701.960938 485.671875 700.589844 486.015625 C 699.21875 486.359375 697.855469 486.734375 696.503906 487.144531 C 695.148438 487.558594 693.808594 488 692.476562 488.476562 C 691.148438 488.953125 689.828125 489.460938 688.523438 490 C 687.214844 490.542969 685.925781 491.113281 684.648438 491.71875 C 683.367188 492.324219 682.105469 492.957031 680.859375 493.625 C 679.613281 494.289062 678.382812 494.984375 677.171875 495.710938 C 675.957031 496.4375 674.765625 497.195312 673.589844 497.980469 C 672.414062 498.765625 671.257812 499.578125 670.125 500.421875 C 668.988281 501.261719 667.875 502.132812 666.78125 503.027344 C 665.6875 503.925781 664.617188 504.847656 663.570312 505.796875 C 662.523438 506.746094 661.5 507.71875 660.5 508.71875 C 659.5 509.71875 658.523438 510.742188 657.574219 511.789062 C 656.625 512.835938 655.703125 513.902344 654.804688 514.996094 C 653.910156 516.089844 653.039062 517.203125 652.195312 518.335938 C 651.355469 519.472656 650.539062 520.628906 649.753906 521.800781 C 648.96875 522.976562 648.214844 524.171875 647.484375 525.382812 C 646.757812 526.59375 646.0625 527.824219 645.394531 529.070312 C 644.726562 530.316406 644.09375 531.578125 643.488281 532.855469 C 642.882812 534.132812 642.308594 535.425781 641.769531 536.730469 C 641.226562 538.039062 640.71875 539.355469 640.242188 540.6875 C 639.765625 542.015625 639.320312 543.359375 638.910156 544.710938 C 638.5 546.0625 638.121094 547.425781 637.777344 548.796875 C 637.433594 550.167969 637.125 551.546875 636.847656 552.933594 C 636.570312 554.316406 636.328125 555.710938 636.121094 557.109375 C 635.914062 558.507812 635.738281 559.910156 635.601562 561.316406 C 635.460938 562.722656 635.355469 564.128906 635.285156 565.542969 C 635.214844 566.953125 635.179688 568.367188 635.179688 569.78125 L 635.179688 672.507812 L 529.007812 672.507812 L 529.007812 422.589844 L 721.574219 263.945312 L 914.140625 422.589844 Z M 914.113281 672.507812 " fill-opacity="1" fill-rule="nonzero"/></g></svg>