<svg xmlns="http://www.w3.org/2000/svg" xmlns:xlink="http://www.w3.org/1999/xlink" width="1920" zoomAndPan="magnify" viewBox="0 0 1440 809.999993" height="1080" preserveAspectRatio="xMidYMid meet" version="1.0"><defs><clipPath id="8115219525"><path d="M 315 0 L 1125 0 L 1125 810 L 315 810 Z M 315 0 " clip-rule="nonzero"/></clipPath></defs><g clip-path="url(#8115219525)"><path fill="#c3acd0" d="M 794.4375 416.339844 C 794.4375 457.449219 761.109375 490.738281 720.039062 490.738281 C 678.972656 490.738281 645.601562 457.40625 645.601562 416.339844 C 645.601562 375.273438 678.933594 341.941406 720.039062 341.941406 C 761.148438 341.941406 794.4375 375.273438 794.4375 416.339844 Z M 901.765625 326.105469 C 902.859375 349.636719 903.058594 356.722656 903.058594 416.339844 C 903.058594 475.957031 902.816406 483.003906 901.765625 506.535156 C 900.792969 528.28125 897.148438 540.109375 894.070312 548.003906 C 890.019531 558.414062 885.199219 565.867188 877.382812 573.683594 C 869.566406 581.5 862.113281 586.320312 851.707031 590.367188 C 843.847656 593.445312 832.023438 597.050781 810.234375 598.0625 C 786.703125 599.117188 779.617188 599.359375 720 599.359375 C 660.382812 599.359375 653.335938 599.117188 629.765625 598.0625 C 608.015625 597.050781 596.191406 593.445312 588.292969 590.367188 C 577.886719 586.320312 570.433594 581.5 562.617188 573.683594 C 554.800781 565.867188 549.980469 558.414062 545.929688 548.003906 C 542.894531 540.148438 539.25 528.324219 538.234375 506.535156 C 537.183594 483.003906 536.941406 475.914062 536.941406 416.339844 C 536.941406 356.765625 537.183594 349.675781 538.234375 326.105469 C 539.25 304.359375 542.851562 292.53125 545.929688 284.632812 C 549.980469 274.226562 554.800781 266.773438 562.617188 258.957031 C 570.433594 251.140625 577.886719 246.320312 588.292969 242.269531 C 596.152344 239.234375 607.976562 235.589844 629.765625 234.574219 C 653.296875 233.484375 660.382812 233.28125 720 233.28125 C 779.617188 233.28125 786.664062 233.523438 810.234375 234.574219 C 831.984375 235.589844 843.808594 239.191406 851.707031 242.269531 C 862.113281 246.320312 869.566406 251.140625 877.382812 258.957031 C 885.199219 266.773438 890.019531 274.226562 894.070312 284.632812 C 897.148438 292.492188 900.75 304.316406 901.765625 326.105469 Z M 834.695312 416.339844 C 834.695312 353.039062 783.382812 301.683594 720.039062 301.683594 C 656.699219 301.683594 605.386719 353 605.386719 416.339844 C 605.386719 479.683594 656.699219 530.996094 720.039062 530.996094 C 783.382812 530.996094 834.695312 479.683594 834.695312 416.339844 Z M 866.003906 297.148438 C 866.003906 282.367188 854.015625 270.378906 839.191406 270.378906 C 824.367188 270.378906 812.421875 282.367188 812.421875 297.148438 C 812.421875 311.929688 824.410156 323.960938 839.191406 323.960938 C 853.972656 323.960938 866.003906 311.972656 866.003906 297.148438 Z M 1125.039062 405 C 1125.039062 628.679688 943.722656 810 720.039062 810 C 496.359375 810 315 628.679688 315 405 C 315 181.320312 496.320312 0 720 0 C 943.679688 0 1125 181.320312 1125 405 Z M 943.316406 416.339844 C 943.316406 355.710938 943.074219 348.097656 941.980469 324.285156 C 940.886719 300.511719 937.121094 284.308594 931.613281 270.09375 C 925.902344 255.433594 918.289062 242.960938 905.855469 230.566406 C 893.421875 218.171875 880.988281 210.519531 866.328125 204.808594 C 852.109375 199.300781 835.910156 195.535156 812.136719 194.441406 C 788.324219 193.347656 780.710938 193.105469 720.082031 193.105469 C 659.453125 193.105469 651.839844 193.347656 628.023438 194.441406 C 604.25 195.535156 588.050781 199.300781 573.835938 204.808594 C 559.175781 210.519531 546.699219 218.132812 534.308594 230.566406 C 521.914062 242.960938 514.261719 255.433594 508.550781 270.09375 C 503.042969 284.308594 499.234375 300.511719 498.179688 324.285156 C 497.089844 348.097656 496.84375 355.710938 496.84375 416.339844 C 496.84375 476.96875 497.089844 484.582031 498.179688 508.398438 C 499.273438 532.171875 503.042969 548.371094 508.550781 562.585938 C 514.261719 577.246094 521.875 589.71875 534.308594 602.113281 C 546.699219 614.507812 559.175781 622.160156 573.835938 627.871094 C 588.050781 633.378906 604.25 637.144531 628.023438 638.238281 C 651.839844 639.332031 659.453125 639.574219 720.082031 639.574219 C 780.710938 639.574219 788.324219 639.332031 812.136719 638.238281 C 835.910156 637.144531 852.109375 633.378906 866.328125 627.871094 C 880.988281 622.160156 893.460938 614.546875 905.855469 602.113281 C 918.246094 589.679688 925.902344 577.246094 931.613281 562.585938 C 937.121094 548.371094 940.886719 532.171875 941.980469 508.398438 C 943.074219 484.582031 943.316406 476.96875 943.316406 416.339844 Z M 943.316406 416.339844 " fill-opacity="1" fill-rule="nonzero"/></g></svg>