<svg xmlns="http://www.w3.org/2000/svg" xmlns:xlink="http://www.w3.org/1999/xlink" width="1920" zoomAndPan="magnify" viewBox="0 0 1440 809.999993" height="1080" preserveAspectRatio="xMidYMid meet" version="1.0"><path fill="#c3acd0" d="M 720 0 C 496.320312 0 315 181.320312 315 405 C 315 628.679688 496.320312 810 720 810 C 943.679688 810 1125 628.679688 1125 405 C 1125 181.320312 943.679688 0 720 0 Z M 597.769531 603.53125 L 512.640625 603.53125 L 512.640625 333.800781 L 597.769531 333.800781 Z M 553.019531 300.066406 L 552.410156 300.066406 C 521.589844 300.066406 501.625 279.449219 501.625 253.289062 C 501.625 227.125 522.199219 206.46875 553.625 206.46875 C 585.054688 206.46875 604.332031 226.597656 604.980469 253.246094 C 604.980469 279.367188 585.054688 300.066406 553.058594 300.066406 Z M 938.375 603.53125 L 841.824219 603.53125 L 841.824219 463.925781 C 841.824219 427.398438 826.71875 402.449219 793.507812 402.449219 C 768.113281 402.449219 753.980469 419.296875 747.417969 435.496094 C 744.949219 441.328125 745.351562 449.429688 745.351562 457.527344 L 745.351562 603.492188 L 649.734375 603.492188 C 649.734375 603.492188 650.949219 356.238281 649.734375 333.761719 L 745.351562 333.761719 L 745.351562 376.082031 C 750.984375 357.574219 781.558594 331.167969 830.320312 331.167969 C 890.828125 331.167969 938.375 369.96875 938.375 453.519531 Z M 938.375 603.53125 " fill-opacity="1" fill-rule="nonzero"/></svg>