<svg xmlns="http://www.w3.org/2000/svg" xmlns:xlink="http://www.w3.org/1999/xlink" width="1920" zoomAndPan="magnify" viewBox="0 0 1440 809.999993" height="1080" preserveAspectRatio="xMidYMid meet" version="1.0"><defs><g/><clipPath id="3892ecebdc"><path d="M 0.949219 368 L 341 368 L 341 659.679688 L 0.949219 659.679688 Z M 0.949219 368 " clip-rule="nonzero"/></clipPath><clipPath id="1abddbfae2"><path d="M 152 150.394531 L 495.148438 150.394531 L 495.148438 442 L 152 442 Z M 152 150.394531 " clip-rule="nonzero"/></clipPath></defs><g clip-path="url(#3892ecebdc)"><path fill="#c3acd0" d="M 104.339844 380.03125 C 106.074219 378.277344 108.367188 377.390625 110.664062 377.390625 C 112.976562 377.390625 115.269531 378.277344 117.023438 380.03125 C 120.507812 383.519531 120.507812 389.210938 117.023438 392.699219 C 113.515625 396.207031 107.824219 396.207031 104.339844 392.699219 C 100.832031 389.210938 100.832031 383.519531 104.339844 380.03125 Z M 325.609375 431.308594 L 269.484375 375.167969 C 267.679688 373.359375 264.753906 373.359375 262.945312 375.167969 C 261.136719 376.976562 261.136719 379.902344 262.945312 381.710938 L 319.066406 437.855469 C 335.78125 454.574219 335.78125 481.777344 319.066406 498.496094 L 179.738281 637.898438 C 163.023438 654.617188 135.8125 654.617188 119.117188 637.898438 L 22.757812 541.5 C 14.664062 533.402344 10.199219 522.628906 10.199219 511.1875 C 10.199219 499.726562 14.664062 488.953125 22.757812 480.855469 L 101.539062 402.046875 C 104.355469 403.691406 107.5 404.578125 110.679688 404.578125 C 115.34375 404.578125 120.003906 402.804688 123.5625 399.246094 C 130.664062 392.140625 130.664062 380.589844 123.5625 373.488281 C 116.445312 366.363281 104.878906 366.363281 97.796875 373.488281 C 91.816406 379.453125 90.929688 388.523438 94.996094 395.503906 L 16.21875 474.3125 C 6.371094 484.164062 0.949219 497.25 0.949219 511.1875 C 0.949219 525.105469 6.371094 538.191406 16.21875 548.042969 L 112.578125 644.441406 C 122.730469 654.601562 136.085938 659.679688 149.417969 659.679688 C 162.773438 659.679688 176.105469 654.601562 186.28125 644.441406 L 325.609375 505.042969 C 345.933594 484.722656 345.933594 451.644531 325.609375 431.308594 " fill-opacity="1" fill-rule="nonzero"/></g><g clip-path="url(#1abddbfae2)"><path fill="#c3acd0" d="M 384.730469 430.242188 C 381.402344 433.550781 376.019531 433.550781 372.695312 430.242188 C 369.386719 426.917969 369.386719 421.53125 372.695312 418.207031 C 374.355469 416.542969 376.542969 415.710938 378.710938 415.710938 C 380.898438 415.710938 383.085938 416.542969 384.730469 418.207031 C 388.054688 421.511719 388.054688 426.917969 384.730469 430.242188 Z M 480.367188 258.324219 L 387.238281 165.164062 C 367.5625 145.460938 335.507812 145.460938 315.8125 165.164062 L 166.890625 314.144531 C 157.351562 323.6875 152.09375 336.375 152.09375 349.878906 C 152.09375 363.382812 157.351562 376.070312 166.890625 385.613281 L 213.4375 432.195312 C 214.339844 433.101562 215.53125 433.550781 216.707031 433.550781 C 217.898438 433.550781 219.074219 433.101562 219.976562 432.195312 C 221.785156 430.386719 221.785156 427.460938 219.976562 425.652344 L 173.433594 379.070312 C 165.628906 371.28125 161.34375 360.90625 161.34375 349.878906 C 161.34375 338.851562 165.628906 328.496094 173.433594 320.6875 L 322.355469 171.707031 C 338.4375 155.621094 364.617188 155.621094 380.699219 171.707031 L 473.824219 264.871094 C 489.90625 280.957031 489.90625 307.148438 473.824219 323.234375 L 387.980469 409.113281 C 381.132812 404.921875 372.082031 405.75 366.152344 411.664062 C 359.234375 418.585938 359.234375 429.863281 366.152344 436.789062 C 369.625 440.238281 374.175781 441.976562 378.710938 441.976562 C 383.265625 441.976562 387.816406 440.238281 391.269531 436.789062 C 396.925781 431.128906 397.882812 422.597656 394.304688 415.875 L 480.367188 329.78125 C 500.0625 310.078125 500.0625 278.027344 480.367188 258.324219 " fill-opacity="1" fill-rule="nonzero"/></g><g fill="#c3acd0" fill-opacity="1"><g transform="translate(517.40487, 483.562709)"><g><path d="M 87.84375 -23.421875 C 107.519531 -23.421875 121.1875 -33.296875 128.84375 -53.046875 L 157.25 -42.328125 C 151.132812 -27.296875 142.164062 -16.113281 130.34375 -8.78125 C 118.519531 -1.457031 104.351562 2.203125 87.84375 2.203125 C 62.800781 2.203125 43.445312 -4.882812 29.78125 -19.0625 C 16.113281 -33.238281 9.28125 -53.070312 9.28125 -78.5625 C 9.28125 -104.125 15.875 -123.753906 29.0625 -137.453125 C 42.25 -151.160156 61.367188 -158.015625 86.421875 -158.015625 C 104.679688 -158.015625 119.554688 -154.347656 131.046875 -147.015625 C 142.546875 -139.691406 150.617188 -128.921875 155.265625 -114.703125 L 126.53125 -106.859375 C 124.09375 -114.671875 119.316406 -120.878906 112.203125 -125.484375 C 105.097656 -130.085938 96.722656 -132.390625 87.078125 -132.390625 C 72.335938 -132.390625 61.15625 -127.820312 53.53125 -118.6875 C 45.914062 -109.550781 42.109375 -96.175781 42.109375 -78.5625 C 42.109375 -60.664062 46.03125 -47 53.875 -37.5625 C 61.71875 -28.132812 73.039062 -23.421875 87.84375 -23.421875 Z M 87.84375 -23.421875 "/></g></g><g transform="translate(680.841193, 483.562709)"><g><path d="M 129.40625 -59.890625 C 129.40625 -40.515625 124.023438 -25.320312 113.265625 -14.3125 C 102.515625 -3.300781 87.632812 2.203125 68.625 2.203125 C 49.988281 2.203125 35.363281 -3.316406 24.75 -14.359375 C 14.144531 -25.410156 8.84375 -40.585938 8.84375 -59.890625 C 8.84375 -79.117188 14.144531 -94.238281 24.75 -105.25 C 35.363281 -116.269531 50.207031 -121.78125 69.28125 -121.78125 C 88.800781 -121.78125 103.703125 -116.457031 113.984375 -105.8125 C 124.265625 -95.164062 129.40625 -79.859375 129.40625 -59.890625 Z M 96.90625 -59.890625 C 96.90625 -74.109375 94.582031 -84.421875 89.9375 -90.828125 C 85.300781 -97.242188 78.566406 -100.453125 69.734375 -100.453125 C 50.867188 -100.453125 41.4375 -86.929688 41.4375 -59.890625 C 41.4375 -46.554688 43.738281 -36.40625 48.34375 -29.4375 C 52.945312 -22.476562 59.597656 -19 68.296875 -19 C 87.367188 -19 96.90625 -32.628906 96.90625 -59.890625 Z M 96.90625 -59.890625 "/></g></g><g transform="translate(819.082463, 483.562709)"><g><path d="M 93.265625 0 L 93.265625 -67.078125 C 93.265625 -88.066406 86.15625 -98.5625 71.9375 -98.5625 C 64.425781 -98.5625 58.367188 -95.335938 53.765625 -88.890625 C 49.160156 -82.453125 46.859375 -74.1875 46.859375 -64.09375 L 46.859375 0 L 15.796875 0 L 15.796875 -92.828125 C 15.796875 -99.234375 15.703125 -104.476562 15.515625 -108.5625 C 15.335938 -112.65625 15.140625 -116.320312 14.921875 -119.5625 L 44.53125 -119.5625 C 44.75 -118.164062 45.039062 -114.425781 45.40625 -108.34375 C 45.78125 -102.269531 45.96875 -98.09375 45.96875 -95.8125 L 46.40625 -95.8125 C 50.601562 -104.945312 55.867188 -111.578125 62.203125 -115.703125 C 68.546875 -119.828125 76.101562 -121.890625 84.875 -121.890625 C 97.539062 -121.890625 107.257812 -117.984375 114.03125 -110.171875 C 120.8125 -102.359375 124.203125 -90.941406 124.203125 -75.921875 L 124.203125 0 Z M 93.265625 0 "/></g></g><g transform="translate(957.323733, 483.562709)"><g><path d="M 85.421875 -130.5 L 85.421875 0 L 52.828125 0 L 52.828125 -130.5 L 2.546875 -130.5 L 2.546875 -155.703125 L 135.8125 -155.703125 L 135.8125 -130.5 Z M 85.421875 -130.5 "/></g></g><g transform="translate(1095.565003, 483.562709)"><g><path d="M 64.75 2.203125 C 46.78125 2.203125 32.96875 -3.113281 23.3125 -13.75 C 13.664062 -24.394531 8.84375 -39.921875 8.84375 -60.328125 C 8.84375 -80.078125 13.738281 -95.253906 23.53125 -105.859375 C 33.332031 -116.472656 47.222656 -121.78125 65.203125 -121.78125 C 82.359375 -121.78125 95.46875 -116.085938 104.53125 -104.703125 C 113.59375 -93.316406 118.125 -76.648438 118.125 -54.703125 L 118.125 -53.8125 L 41.4375 -53.8125 C 41.4375 -42.175781 43.59375 -33.390625 47.90625 -27.453125 C 52.21875 -21.523438 58.347656 -18.5625 66.296875 -18.5625 C 77.273438 -18.5625 84.203125 -23.3125 87.078125 -32.8125 L 116.359375 -30.28125 C 107.890625 -8.625 90.6875 2.203125 64.75 2.203125 Z M 64.75 -102.21875 C 57.457031 -102.21875 51.835938 -99.675781 47.890625 -94.59375 C 43.953125 -89.507812 41.875 -82.398438 41.65625 -73.265625 L 88.078125 -73.265625 C 87.484375 -82.910156 85.160156 -90.144531 81.109375 -94.96875 C 77.054688 -99.800781 71.601562 -102.21875 64.75 -102.21875 Z M 64.75 -102.21875 "/></g></g><g transform="translate(1221.429757, 483.562709)"><g><path d="M 116.578125 -34.921875 C 116.578125 -23.347656 111.84375 -14.265625 102.375 -7.671875 C 92.914062 -1.085938 79.820312 2.203125 63.09375 2.203125 C 46.664062 2.203125 34.085938 -0.390625 25.359375 -5.578125 C 16.628906 -10.773438 10.828125 -18.863281 7.953125 -29.84375 L 35.25 -33.921875 C 36.800781 -28.253906 39.472656 -24.238281 43.265625 -21.875 C 47.054688 -19.519531 53.664062 -18.34375 63.09375 -18.34375 C 71.789062 -18.34375 78.128906 -19.445312 82.109375 -21.65625 C 86.085938 -23.863281 88.078125 -27.328125 88.078125 -32.046875 C 88.078125 -35.878906 86.472656 -38.914062 83.265625 -41.15625 C 80.054688 -43.40625 74.625 -45.304688 66.96875 -46.859375 C 49.4375 -50.316406 37.613281 -53.535156 31.5 -56.515625 C 25.382812 -59.503906 20.722656 -63.375 17.515625 -68.125 C 14.304688 -72.875 12.703125 -78.710938 12.703125 -85.640625 C 12.703125 -97.054688 17.101562 -105.953125 25.90625 -112.328125 C 34.71875 -118.703125 47.1875 -121.890625 63.3125 -121.890625 C 77.53125 -121.890625 88.96875 -119.125 97.625 -113.59375 C 106.28125 -108.070312 111.675781 -100.082031 113.8125 -89.625 L 86.296875 -86.75 C 85.421875 -91.601562 83.25 -95.226562 79.78125 -97.625 C 76.320312 -100.019531 70.832031 -101.21875 63.3125 -101.21875 C 55.945312 -101.21875 50.421875 -100.28125 46.734375 -98.40625 C 43.054688 -96.53125 41.21875 -93.378906 41.21875 -88.953125 C 41.21875 -85.492188 42.632812 -82.75 45.46875 -80.71875 C 48.3125 -78.695312 53.082031 -77.023438 59.78125 -75.703125 C 69.132812 -73.785156 77.441406 -71.8125 84.703125 -69.78125 C 91.960938 -67.757812 97.78125 -65.347656 102.15625 -62.546875 C 106.539062 -59.742188 110.039062 -56.148438 112.65625 -51.765625 C 115.269531 -47.390625 116.578125 -41.773438 116.578125 -34.921875 Z M 116.578125 -34.921875 "/></g></g><g transform="translate(1347.29451, 483.562709)"><g><path d="M 46.40625 1.984375 C 37.269531 1.984375 30.234375 -0.5 25.296875 -5.46875 C 20.367188 -10.4375 17.90625 -17.96875 17.90625 -28.0625 L 17.90625 -98.5625 L 2.765625 -98.5625 L 2.765625 -119.5625 L 19.453125 -119.5625 L 29.171875 -147.640625 L 48.625 -147.640625 L 48.625 -119.5625 L 71.28125 -119.5625 L 71.28125 -98.5625 L 48.625 -98.5625 L 48.625 -36.46875 C 48.625 -30.644531 49.726562 -26.351562 51.9375 -23.59375 C 54.144531 -20.832031 57.570312 -19.453125 62.21875 -19.453125 C 64.644531 -19.453125 68.101562 -19.96875 72.59375 -21 L 72.59375 -1.765625 C 64.9375 0.734375 56.207031 1.984375 46.40625 1.984375 Z M 46.40625 1.984375 "/></g></g></g></svg>