<svg xmlns="http://www.w3.org/2000/svg" xmlns:xlink="http://www.w3.org/1999/xlink" width="1920" zoomAndPan="magnify" viewBox="0 0 1440 809.999993" height="1080" preserveAspectRatio="xMidYMid meet" version="1.0"><defs><filter x="0%" y="0%" width="100%" height="100%" id="5cc328b727"><feColorMatrix values="0 0 0 0 1 0 0 0 0 1 0 0 0 0 1 0 0 0 1 0" color-interpolation-filters="sRGB"/></filter><g/><mask id="4ef281678b"><g filter="url(#5cc328b727)"><rect x="-144" width="1728" fill="#000000" y="-80.999999" height="971.999992" fill-opacity="0.5373"/></g></mask><clipPath id="82d110b7a7"><path d="M 605.539062 0.320312 L 935 0.320312 L 935 277 L 605.539062 277 Z M 605.539062 0.320312 " clip-rule="nonzero"/></clipPath><clipPath id="56564c0b2c"><path d="M 605.539062 190 L 803 190 L 803 408 L 605.539062 408 Z M 605.539062 190 " clip-rule="nonzero"/></clipPath><clipPath id="502fef5f82"><path d="M 605.539062 368 L 677 368 L 677 534 L 605.539062 534 Z M 605.539062 368 " clip-rule="nonzero"/></clipPath><clipPath id="8b95c2ed91"><rect x="0" width="936" y="0" height="535"/></clipPath><mask id="52fc1baf3f"><g filter="url(#5cc328b727)"><rect x="-144" width="1728" fill="#000000" y="-80.999999" height="971.999992" fill-opacity="0.7098"/></g></mask><clipPath id="0c3cb3647f"><path d="M 0.285156 0.457031 L 387 0.457031 L 387 780 L 0.285156 780 Z M 0.285156 0.457031 " clip-rule="nonzero"/></clipPath><clipPath id="ccc90b1bbb"><path d="M 347.011719 0.457031 L 39.300781 0.457031 C 39.300781 21.925781 21.9375 39.472656 0.285156 39.472656 L 0.285156 740.527344 C 21.753906 740.527344 39.300781 757.890625 39.300781 779.542969 L 347.011719 779.542969 C 347.011719 758.074219 364.371094 740.527344 386.027344 740.527344 L 386.027344 39.472656 C 364.558594 39.472656 347.011719 22.109375 347.011719 0.457031 " clip-rule="nonzero"/></clipPath><clipPath id="5b797fc73d"><rect x="0" width="388" y="0" height="781"/></clipPath><clipPath id="5f61d0377e"><path d="M 823.21875 15.457031 L 1227.003906 15.457031 L 1227.003906 794.09375 L 823.21875 794.09375 Z M 823.21875 15.457031 " clip-rule="nonzero"/></clipPath><clipPath id="665a6c87ce"><path d="M 216 106.300781 L 821.429688 106.300781 L 821.429688 383 L 216 383 Z M 216 106.300781 " clip-rule="nonzero"/></clipPath><clipPath id="68353a16a9"><path d="M 348 296 L 821.429688 296 L 821.429688 514 L 348 514 Z M 348 296 " clip-rule="nonzero"/></clipPath><clipPath id="bab9387ada"><path d="M 474 474 L 821.429688 474 L 821.429688 640 L 474 640 Z M 474 474 " clip-rule="nonzero"/></clipPath><clipPath id="9c4d904f89"><path d="M 622 673 L 744 673 L 744 794.296875 L 622 794.296875 Z M 622 673 " clip-rule="nonzero"/></clipPath><clipPath id="c0cdd37925"><path d="M 1103 76.050781 L 1186 76.050781 L 1186 101 L 1103 101 Z M 1103 76.050781 " clip-rule="nonzero"/></clipPath><clipPath id="542be24f4a"><path d="M 1139 126 L 1150 126 L 1150 136.785156 L 1139 136.785156 Z M 1139 126 " clip-rule="nonzero"/></clipPath><clipPath id="efcfee7100"><path d="M 1137.746094 125 L 1153.15625 125 L 1153.15625 141 L 1137.746094 141 Z M 1137.746094 125 " clip-rule="nonzero"/></clipPath><clipPath id="a81092c9c0"><path d="M 1137.746094 72 L 1153.15625 72 L 1153.15625 118 L 1137.746094 118 Z M 1137.746094 72 " clip-rule="nonzero"/></clipPath><clipPath id="3d7549cfe4"><path d="M 1018 212.5 L 1026 212.5 L 1026 232 L 1018 232 Z M 1018 212.5 " clip-rule="nonzero"/></clipPath><clipPath id="6ef50f9470"><path d="M 1018 292 L 1027 292 L 1027 312.210938 L 1018 312.210938 Z M 1018 292 " clip-rule="nonzero"/></clipPath><mask id="f4455efe9d"><g filter="url(#5cc328b727)"><rect x="-144" width="1728" fill="#000000" y="-80.999999" height="971.999992" fill-opacity="0.549"/></g></mask><clipPath id="7fc4b9dcf6"><path d="M 0.800781 0.800781 L 8 0.800781 L 8 20.210938 L 0.800781 20.210938 Z M 0.800781 0.800781 " clip-rule="nonzero"/></clipPath><clipPath id="4e814af4d5"><rect x="0" width="9" y="0" height="21"/></clipPath><clipPath id="91de9f09c2"><path d="M 1052 258 L 1072.316406 258 L 1072.316406 267 L 1052 267 Z M 1052 258 " clip-rule="nonzero"/></clipPath><mask id="8851536338"><g filter="url(#5cc328b727)"><rect x="-144" width="1728" fill="#000000" y="-80.999999" height="971.999992" fill-opacity="0.298"/></g></mask><clipPath id="a07b38a0d9"><path d="M 1 0.71875 L 20.316406 0.71875 L 20.316406 8 L 1 8 Z M 1 0.71875 " clip-rule="nonzero"/></clipPath><clipPath id="ef29eb9d90"><rect x="0" width="21" y="0" height="9"/></clipPath><clipPath id="7986260b45"><path d="M 972.609375 258 L 993 258 L 993 266 L 972.609375 266 Z M 972.609375 258 " clip-rule="nonzero"/></clipPath><mask id="f264b80590"><g filter="url(#5cc328b727)"><rect x="-144" width="1728" fill="#000000" y="-80.999999" height="971.999992" fill-opacity="0.749"/></g></mask><clipPath id="40c8189686"><path d="M 0.609375 0.480469 L 20 0.480469 L 20 7.921875 L 0.609375 7.921875 Z M 0.609375 0.480469 " clip-rule="nonzero"/></clipPath><clipPath id="d06ac50143"><rect x="0" width="21" y="0" height="8"/></clipPath><mask id="9ffbc7b797"><g filter="url(#5cc328b727)"><rect x="-144" width="1728" fill="#000000" y="-80.999999" height="971.999992" fill-opacity="0.898"/></g></mask><clipPath id="aa59070c8f"><rect x="0" width="17" y="0" height="22"/></clipPath><mask id="72ee7f0a0d"><g filter="url(#5cc328b727)"><rect x="-144" width="1728" fill="#000000" y="-80.999999" height="971.999992" fill-opacity="0.498"/></g></mask><clipPath id="2a912c7eec"><rect x="0" width="17" y="0" height="22"/></clipPath><mask id="ebb69624a3"><g filter="url(#5cc328b727)"><rect x="-144" width="1728" fill="#000000" y="-80.999999" height="971.999992" fill-opacity="0.2"/></g></mask><clipPath id="c9467d6c1e"><rect x="0" width="21" y="0" height="17"/></clipPath><mask id="96643a9576"><g filter="url(#5cc328b727)"><rect x="-144" width="1728" fill="#000000" y="-80.999999" height="971.999992" fill-opacity="0.6471"/></g></mask><clipPath id="422e5d0fbb"><rect x="0" width="21" y="0" height="17"/></clipPath><mask id="4de4b2cc37"><g filter="url(#5cc328b727)"><rect x="-144" width="1728" fill="#000000" y="-80.999999" height="971.999992" fill-opacity="0.8471"/></g></mask><clipPath id="19401818f6"><rect x="0" width="21" y="0" height="17"/></clipPath><mask id="d136e01d59"><g filter="url(#5cc328b727)"><rect x="-144" width="1728" fill="#000000" y="-80.999999" height="971.999992" fill-opacity="0.4"/></g></mask><clipPath id="2cf375e318"><rect x="0" width="21" y="0" height="17"/></clipPath><mask id="6725a19d5a"><g filter="url(#5cc328b727)"><rect x="-144" width="1728" fill="#000000" y="-80.999999" height="971.999992" fill-opacity="0.098"/></g></mask><clipPath id="f15a860f43"><rect x="0" width="17" y="0" height="22"/></clipPath><mask id="eaef421a5e"><g filter="url(#5cc328b727)"><rect x="-144" width="1728" fill="#000000" y="-80.999999" height="971.999992" fill-opacity="0.6"/></g></mask><clipPath id="83344d0734"><rect x="0" width="17" y="0" height="22"/></clipPath></defs><g mask="url(#4ef281678b)"><g transform="matrix(1, 0, 0, 1, 216, 106)"><g clip-path="url(#8b95c2ed91)"><g clip-path="url(#82d110b7a7)"><path fill="#c3acd0" d="M 919.53125 187.601562 C 858.503906 126.605469 787.359375 79.367188 708.066406 47.207031 C 631.5 16.140625 550.628906 0.394531 467.675781 0.394531 C 384.71875 0.394531 303.855469 16.140625 227.285156 47.207031 C 148.007812 79.367188 76.859375 126.605469 15.839844 187.601562 C -4.574219 208.007812 -4.574219 241.089844 15.839844 261.496094 C 36.253906 281.902344 69.351562 281.898438 89.765625 261.496094 C 298.148438 53.207031 637.207031 53.207031 845.59375 261.496094 C 855.800781 271.695312 869.175781 276.796875 882.558594 276.796875 C 895.9375 276.796875 909.3125 271.695312 919.519531 261.496094 C 939.933594 241.089844 939.933594 208.007812 919.519531 187.601562 Z M 919.53125 187.601562 " fill-opacity="1" fill-rule="nonzero"/></g><g clip-path="url(#56564c0b2c)"><path fill="#c3acd0" d="M 467.5625 190.59375 C 346.546875 190.59375 232.714844 237.757812 147.027344 323.390625 C 127.726562 342.683594 127.726562 373.960938 147.027344 393.25 C 166.328125 412.542969 197.617188 412.542969 216.917969 393.25 C 355.121094 255.113281 579.988281 255.113281 718.175781 393.25 C 727.824219 402.894531 740.472656 407.71875 753.121094 407.71875 C 765.769531 407.71875 778.417969 402.894531 788.066406 393.25 C 807.367188 373.960938 807.367188 342.683594 788.066406 323.390625 C 702.386719 237.757812 588.546875 190.59375 467.53125 190.59375 Z M 467.5625 190.59375 " fill-opacity="1" fill-rule="nonzero"/></g><g clip-path="url(#502fef5f82)"><path fill="#c3acd0" d="M 467.5625 368.882812 C 393.984375 368.882812 324.773438 397.554688 272.6875 449.617188 C 253.488281 468.808594 253.488281 499.921875 272.6875 519.113281 C 291.886719 538.300781 323.015625 538.300781 342.214844 519.113281 C 411.332031 450.03125 523.792969 450.03125 592.910156 519.113281 C 602.507812 528.707031 615.089844 533.503906 627.671875 533.503906 C 640.253906 533.503906 652.839844 528.707031 662.4375 519.113281 C 681.636719 499.921875 681.636719 468.808594 662.4375 449.617188 C 610.351562 397.554688 541.144531 368.882812 467.5625 368.882812 Z M 467.5625 368.882812 " fill-opacity="1" fill-rule="nonzero"/></g></g></g></g><g mask="url(#52fc1baf3f)"><g transform="matrix(1, 0, 0, 1, 830, 15)"><g clip-path="url(#5b797fc73d)"><g clip-path="url(#0c3cb3647f)"><g clip-path="url(#ccc90b1bbb)"><path fill="#f7efe5" d="M 0.285156 0.457031 L 387.125 0.457031 L 387.125 780.378906 L 0.285156 780.378906 Z M 0.285156 0.457031 " fill-opacity="1" fill-rule="nonzero"/></g></g></g></g></g><g clip-path="url(#5f61d0377e)"><path fill="#c3acd0" d="M 1204.046875 736.375 C 1204.046875 755.523438 1188.484375 771.007812 1169.398438 771.007812 L 880.890625 771.007812 C 861.804688 771.007812 846.316406 755.523438 846.316406 736.375 L 846.316406 73.105469 C 846.316406 54.027344 861.804688 38.542969 880.890625 38.542969 L 919.824219 38.542969 L 923.421875 45.664062 C 928.332031 55.410156 938.289062 61.632812 949.214844 61.632812 L 1101.074219 61.632812 C 1112.003906 61.632812 1122.03125 55.410156 1126.871094 45.664062 L 1130.464844 38.542969 L 1169.398438 38.542969 C 1188.484375 38.542969 1204.046875 54.027344 1204.046875 73.105469 Z M 1169.398438 15.457031 L 880.890625 15.457031 C 849.011719 15.457031 823.21875 41.308594 823.21875 73.105469 L 823.21875 736.375 C 823.21875 768.308594 849.011719 794.09375 880.890625 794.09375 L 1169.398438 794.09375 C 1201.277344 794.09375 1227.140625 768.308594 1227.140625 736.375 L 1227.140625 73.105469 C 1227.140625 41.308594 1201.277344 15.457031 1169.398438 15.457031 " fill-opacity="1" fill-rule="nonzero"/></g><g clip-path="url(#665a6c87ce)"><path fill="#c3acd0" d="M 1135.53125 293.601562 C 1074.503906 232.605469 1003.359375 185.367188 924.066406 153.207031 C 847.5 122.140625 766.628906 106.394531 683.675781 106.394531 C 600.71875 106.394531 519.855469 122.140625 443.285156 153.207031 C 364.007812 185.367188 292.859375 232.605469 231.839844 293.601562 C 211.425781 314.007812 211.425781 347.089844 231.839844 367.496094 C 252.253906 387.902344 285.351562 387.898438 305.765625 367.496094 C 514.148438 159.207031 853.207031 159.207031 1061.59375 367.496094 C 1071.800781 377.695312 1085.175781 382.796875 1098.558594 382.796875 C 1111.9375 382.796875 1125.3125 377.695312 1135.519531 367.496094 C 1155.933594 347.089844 1155.933594 314.007812 1135.519531 293.601562 Z M 1135.53125 293.601562 " fill-opacity="1" fill-rule="nonzero"/></g><g clip-path="url(#68353a16a9)"><path fill="#c3acd0" d="M 683.5625 296.59375 C 562.546875 296.59375 448.714844 343.757812 363.027344 429.390625 C 343.726562 448.683594 343.726562 479.960938 363.027344 499.25 C 382.328125 518.542969 413.617188 518.542969 432.917969 499.25 C 571.121094 361.113281 795.988281 361.113281 934.175781 499.25 C 943.824219 508.894531 956.472656 513.71875 969.121094 513.71875 C 981.769531 513.71875 994.417969 508.894531 1004.066406 499.25 C 1023.367188 479.960938 1023.367188 448.683594 1004.066406 429.390625 C 918.386719 343.757812 804.546875 296.59375 683.53125 296.59375 Z M 683.5625 296.59375 " fill-opacity="1" fill-rule="nonzero"/></g><g clip-path="url(#bab9387ada)"><path fill="#c3acd0" d="M 683.5625 474.882812 C 609.984375 474.882812 540.773438 503.554688 488.6875 555.617188 C 469.488281 574.808594 469.488281 605.921875 488.6875 625.113281 C 507.886719 644.300781 539.015625 644.300781 558.214844 625.113281 C 627.332031 556.03125 739.792969 556.03125 808.910156 625.113281 C 818.507812 634.707031 831.089844 639.503906 843.671875 639.503906 C 856.253906 639.503906 868.839844 634.707031 878.4375 625.113281 C 897.636719 605.921875 897.636719 574.808594 878.4375 555.617188 C 826.351562 503.554688 757.144531 474.882812 683.5625 474.882812 Z M 683.5625 474.882812 " fill-opacity="1" fill-rule="nonzero"/></g><g clip-path="url(#9c4d904f89)"><path fill="#c3acd0" d="M 743.386719 733.691406 C 743.386719 735.671875 743.289062 737.648438 743.097656 739.621094 C 742.902344 741.589844 742.613281 743.546875 742.226562 745.492188 C 741.839844 747.433594 741.355469 749.351562 740.78125 751.246094 C 740.207031 753.144531 739.539062 755.007812 738.78125 756.835938 C 738.023438 758.667969 737.175781 760.453125 736.242188 762.203125 C 735.308594 763.949219 734.289062 765.644531 733.191406 767.292969 C 732.089844 768.941406 730.910156 770.527344 729.652344 772.058594 C 728.394531 773.589844 727.066406 775.058594 725.664062 776.457031 C 724.261719 777.859375 722.796875 779.1875 721.265625 780.445312 C 719.734375 781.699219 718.144531 782.878906 716.496094 783.980469 C 714.847656 785.078125 713.148438 786.097656 711.402344 787.03125 C 709.65625 787.964844 707.863281 788.808594 706.035156 789.566406 C 704.203125 790.324219 702.339844 790.992188 700.445312 791.566406 C 698.546875 792.144531 696.628906 792.625 694.683594 793.007812 C 692.738281 793.394531 690.78125 793.6875 688.808594 793.878906 C 686.835938 794.074219 684.859375 794.171875 682.878906 794.171875 C 680.898438 794.171875 678.921875 794.074219 676.949219 793.878906 C 674.976562 793.6875 673.019531 793.394531 671.074219 793.007812 C 669.128906 792.625 667.210938 792.140625 665.3125 791.566406 C 663.417969 790.992188 661.554688 790.324219 659.722656 789.566406 C 657.890625 788.808594 656.101562 787.964844 654.355469 787.03125 C 652.605469 786.097656 650.910156 785.078125 649.261719 783.980469 C 647.613281 782.878906 646.023438 781.699219 644.492188 780.445312 C 642.960938 779.1875 641.492188 777.859375 640.09375 776.457031 C 638.691406 775.058594 637.363281 773.589844 636.105469 772.058594 C 634.847656 770.527344 633.667969 768.941406 632.566406 767.292969 C 631.464844 765.644531 630.449219 763.949219 629.515625 762.203125 C 628.582031 760.453125 627.734375 758.667969 626.976562 756.835938 C 626.21875 755.007812 625.550781 753.144531 624.976562 751.246094 C 624.398438 749.351562 623.917969 747.433594 623.53125 745.492188 C 623.144531 743.546875 622.855469 741.589844 622.660156 739.621094 C 622.46875 737.648438 622.371094 735.671875 622.371094 733.691406 C 622.371094 731.710938 622.46875 729.734375 622.660156 727.761719 C 622.855469 725.792969 623.144531 723.835938 623.53125 721.890625 C 623.917969 719.949219 624.398438 718.03125 624.976562 716.136719 C 625.550781 714.238281 626.21875 712.375 626.976562 710.546875 C 627.734375 708.714844 628.582031 706.929688 629.515625 705.179688 C 630.449219 703.433594 631.464844 701.738281 632.566406 700.089844 C 633.667969 698.445312 634.847656 696.855469 636.105469 695.324219 C 637.363281 693.792969 638.691406 692.324219 640.09375 690.925781 C 641.492188 689.523438 642.960938 688.195312 644.492188 686.941406 C 646.023438 685.683594 647.613281 684.503906 649.261719 683.402344 C 650.910156 682.304688 652.605469 681.285156 654.355469 680.351562 C 656.101562 679.417969 657.890625 678.574219 659.722656 677.816406 C 661.554688 677.058594 663.417969 676.390625 665.3125 675.816406 C 667.210938 675.242188 669.128906 674.761719 671.074219 674.375 C 673.019531 673.988281 674.976562 673.695312 676.949219 673.503906 C 678.921875 673.308594 680.898438 673.210938 682.878906 673.210938 C 684.859375 673.210938 686.835938 673.308594 688.808594 673.503906 C 690.78125 673.695312 692.738281 673.988281 694.683594 674.375 C 696.628906 674.761719 698.546875 675.242188 700.445312 675.816406 C 702.339844 676.390625 704.203125 677.058594 706.035156 677.816406 C 707.863281 678.574219 709.65625 679.417969 711.402344 680.351562 C 713.148438 681.285156 714.847656 682.304688 716.496094 683.402344 C 718.144531 684.503906 719.734375 685.683594 721.265625 686.941406 C 722.796875 688.195312 724.261719 689.523438 725.664062 690.925781 C 727.066406 692.324219 728.394531 693.792969 729.652344 695.324219 C 730.910156 696.855469 732.089844 698.441406 733.191406 700.089844 C 734.289062 701.738281 735.308594 703.433594 736.242188 705.179688 C 737.175781 706.929688 738.023438 708.714844 738.78125 710.546875 C 739.539062 712.375 740.207031 714.238281 740.78125 716.136719 C 741.355469 718.03125 741.839844 719.949219 742.222656 721.890625 C 742.609375 723.835938 742.902344 725.792969 743.097656 727.761719 C 743.289062 729.734375 743.386719 731.710938 743.386719 733.691406 Z M 743.386719 733.691406 " fill-opacity="1" fill-rule="nonzero"/></g><g clip-path="url(#c0cdd37925)"><path fill="#c3acd0" d="M 1184.457031 92.585938 C 1179.070312 87.199219 1172.789062 83.03125 1165.789062 80.191406 C 1159.027344 77.449219 1151.886719 76.058594 1144.5625 76.058594 C 1137.238281 76.058594 1130.101562 77.449219 1123.339844 80.191406 C 1116.339844 83.03125 1110.058594 87.199219 1104.671875 92.585938 C 1102.867188 94.386719 1102.867188 97.308594 1104.671875 99.109375 C 1106.472656 100.910156 1109.394531 100.910156 1111.199219 99.109375 C 1129.597656 80.722656 1159.53125 80.722656 1177.929688 99.109375 C 1178.832031 100.007812 1180.011719 100.460938 1181.195312 100.460938 C 1182.375 100.460938 1183.558594 100.007812 1184.457031 99.109375 C 1186.261719 97.308594 1186.261719 94.386719 1184.457031 92.585938 Z M 1184.457031 92.585938 " fill-opacity="1" fill-rule="nonzero"/></g><path fill="#c3acd0" d="M 1144.554688 92.851562 C 1133.871094 92.851562 1123.820312 97.011719 1116.253906 104.574219 C 1114.550781 106.277344 1114.550781 109.035156 1116.253906 110.738281 C 1117.957031 112.441406 1120.71875 112.441406 1122.425781 110.738281 C 1134.625 98.546875 1154.480469 98.546875 1166.679688 110.738281 C 1167.53125 111.589844 1168.648438 112.015625 1169.765625 112.015625 C 1170.882812 112.015625 1172 111.589844 1172.851562 110.738281 C 1174.554688 109.035156 1174.554688 106.277344 1172.851562 104.574219 C 1165.285156 97.011719 1155.234375 92.851562 1144.550781 92.851562 Z M 1144.554688 92.851562 " fill-opacity="1" fill-rule="nonzero"/><path fill="#c3acd0" d="M 1144.554688 108.589844 C 1138.058594 108.589844 1131.945312 111.121094 1127.347656 115.714844 C 1125.652344 117.410156 1125.652344 120.15625 1127.347656 121.851562 C 1129.042969 123.542969 1131.792969 123.542969 1133.488281 121.851562 C 1139.589844 115.753906 1149.519531 115.753906 1155.621094 121.851562 C 1156.46875 122.699219 1157.578125 123.121094 1158.691406 123.121094 C 1159.800781 123.121094 1160.914062 122.699219 1161.757812 121.851562 C 1163.453125 120.15625 1163.453125 117.410156 1161.757812 115.714844 C 1157.160156 111.121094 1151.050781 108.589844 1144.554688 108.589844 Z M 1144.554688 108.589844 " fill-opacity="1" fill-rule="nonzero"/><g clip-path="url(#542be24f4a)"><path fill="#c3acd0" d="M 1149.835938 131.4375 C 1149.835938 131.785156 1149.800781 132.132812 1149.734375 132.476562 C 1149.664062 132.820312 1149.5625 133.15625 1149.429688 133.480469 C 1149.296875 133.804688 1149.128906 134.109375 1148.9375 134.402344 C 1148.742188 134.695312 1148.519531 134.964844 1148.269531 135.210938 C 1148.023438 135.460938 1147.753906 135.679688 1147.460938 135.875 C 1147.171875 136.070312 1146.863281 136.234375 1146.539062 136.367188 C 1146.214844 136.503906 1145.878906 136.605469 1145.535156 136.671875 C 1145.191406 136.742188 1144.84375 136.773438 1144.492188 136.773438 C 1144.144531 136.773438 1143.796875 136.742188 1143.453125 136.671875 C 1143.105469 136.605469 1142.773438 136.503906 1142.449219 136.367188 C 1142.125 136.234375 1141.816406 136.070312 1141.527344 135.875 C 1141.234375 135.679688 1140.964844 135.460938 1140.714844 135.210938 C 1140.46875 134.964844 1140.246094 134.695312 1140.050781 134.402344 C 1139.855469 134.109375 1139.691406 133.804688 1139.558594 133.480469 C 1139.421875 133.15625 1139.320312 132.820312 1139.253906 132.476562 C 1139.183594 132.132812 1139.152344 131.785156 1139.152344 131.4375 C 1139.152344 131.085938 1139.183594 130.738281 1139.253906 130.394531 C 1139.320312 130.050781 1139.421875 129.714844 1139.558594 129.394531 C 1139.691406 129.070312 1139.855469 128.761719 1140.050781 128.46875 C 1140.246094 128.179688 1140.46875 127.910156 1140.714844 127.660156 C 1140.964844 127.414062 1141.234375 127.191406 1141.527344 126.996094 C 1141.816406 126.800781 1142.125 126.636719 1142.449219 126.503906 C 1142.773438 126.367188 1143.105469 126.269531 1143.453125 126.199219 C 1143.796875 126.132812 1144.144531 126.097656 1144.492188 126.097656 C 1144.84375 126.097656 1145.191406 126.132812 1145.535156 126.199219 C 1145.878906 126.269531 1146.214844 126.367188 1146.539062 126.503906 C 1146.863281 126.636719 1147.171875 126.800781 1147.460938 126.996094 C 1147.753906 127.191406 1148.023438 127.414062 1148.269531 127.660156 C 1148.519531 127.910156 1148.742188 128.179688 1148.9375 128.46875 C 1149.128906 128.761719 1149.296875 129.070312 1149.429688 129.394531 C 1149.5625 129.714844 1149.664062 130.050781 1149.734375 130.394531 C 1149.800781 130.738281 1149.835938 131.085938 1149.835938 131.4375 Z M 1149.835938 131.4375 " fill-opacity="1" fill-rule="nonzero"/></g><g clip-path="url(#efcfee7100)"><path fill="#674188" d="M 1137.785156 132.820312 C 1137.785156 128.648438 1141.242188 125.261719 1145.507812 125.261719 C 1149.773438 125.261719 1153.230469 128.648438 1153.230469 132.820312 C 1153.230469 136.996094 1149.773438 140.382812 1145.507812 140.382812 C 1141.242188 140.382812 1137.785156 136.996094 1137.785156 132.820312 Z M 1137.785156 132.820312 " fill-opacity="1" fill-rule="nonzero"/></g><g clip-path="url(#a81092c9c0)"><path fill="#674188" d="M 1149.371094 117.699219 L 1141.644531 117.699219 L 1137.785156 72.335938 L 1153.230469 72.335938 Z M 1149.371094 117.699219 " fill-opacity="1" fill-rule="nonzero"/></g><g clip-path="url(#3d7549cfe4)"><path fill="#674188" d="M 1022.449219 212.496094 C 1022.914062 212.496094 1023.359375 212.582031 1023.785156 212.761719 C 1024.214844 212.9375 1024.589844 213.1875 1024.917969 213.515625 C 1025.246094 213.84375 1025.496094 214.21875 1025.675781 214.648438 C 1025.851562 215.074219 1025.941406 215.519531 1025.941406 215.984375 L 1025.941406 228.207031 C 1025.941406 228.671875 1025.851562 229.117188 1025.675781 229.542969 C 1025.496094 229.96875 1025.246094 230.347656 1024.917969 230.675781 C 1024.589844 231.003906 1024.214844 231.253906 1023.785156 231.429688 C 1023.359375 231.609375 1022.914062 231.695312 1022.449219 231.695312 C 1021.988281 231.695312 1021.542969 231.609375 1021.117188 231.429688 C 1020.6875 231.253906 1020.3125 231.003906 1019.984375 230.675781 C 1019.65625 230.347656 1019.40625 229.96875 1019.226562 229.542969 C 1019.050781 229.117188 1018.960938 228.671875 1018.960938 228.207031 L 1018.960938 215.984375 C 1018.960938 215.519531 1019.050781 215.074219 1019.226562 214.648438 C 1019.40625 214.21875 1019.65625 213.84375 1019.984375 213.515625 C 1020.3125 213.1875 1020.6875 212.9375 1021.117188 212.761719 C 1021.542969 212.582031 1021.988281 212.496094 1022.449219 212.496094 Z M 1022.449219 212.496094 " fill-opacity="1" fill-rule="nonzero"/></g><g clip-path="url(#6ef50f9470)"><g mask="url(#f4455efe9d)"><g transform="matrix(1, 0, 0, 1, 1018, 292)"><g clip-path="url(#4e814af4d5)"><g clip-path="url(#7fc4b9dcf6)"><path fill="#674188" d="M 4.449219 0.992188 C 4.914062 0.992188 5.359375 1.082031 5.785156 1.257812 C 6.214844 1.4375 6.589844 1.6875 6.917969 2.015625 C 7.246094 2.34375 7.496094 2.71875 7.675781 3.148438 C 7.851562 3.574219 7.941406 4.019531 7.941406 4.484375 L 7.941406 16.707031 C 7.941406 17.171875 7.851562 17.613281 7.675781 18.042969 C 7.496094 18.46875 7.246094 18.847656 6.917969 19.175781 C 6.589844 19.5 6.214844 19.753906 5.785156 19.929688 C 5.359375 20.109375 4.914062 20.195312 4.449219 20.195312 C 3.988281 20.195312 3.542969 20.109375 3.117188 19.929688 C 2.6875 19.753906 2.3125 19.5 1.984375 19.175781 C 1.65625 18.847656 1.40625 18.46875 1.226562 18.042969 C 1.050781 17.613281 0.960938 17.171875 0.960938 16.707031 L 0.960938 4.484375 C 0.960938 4.019531 1.050781 3.574219 1.226562 3.148438 C 1.40625 2.71875 1.65625 2.34375 1.984375 2.015625 C 2.3125 1.6875 2.6875 1.4375 3.117188 1.257812 C 3.542969 1.082031 3.988281 0.992188 4.449219 0.992188 Z M 4.449219 0.992188 " fill-opacity="1" fill-rule="nonzero"/></g></g></g></g></g><g clip-path="url(#91de9f09c2)"><g mask="url(#8851536338)"><g transform="matrix(1, 0, 0, 1, 1052, 258)"><g clip-path="url(#ef29eb9d90)"><g clip-path="url(#a07b38a0d9)"><path fill="#674188" d="M 20.300781 4.347656 C 20.300781 4.808594 20.210938 5.253906 20.035156 5.683594 C 19.859375 6.109375 19.605469 6.488281 19.277344 6.8125 C 18.953125 7.140625 18.574219 7.394531 18.148438 7.570312 C 17.71875 7.746094 17.273438 7.835938 16.8125 7.835938 L 4.585938 7.835938 C 4.125 7.835938 3.679688 7.746094 3.253906 7.570312 C 2.824219 7.394531 2.449219 7.140625 2.121094 6.8125 C 1.792969 6.488281 1.539062 6.109375 1.363281 5.683594 C 1.1875 5.253906 1.097656 4.808594 1.097656 4.347656 C 1.097656 3.882812 1.1875 3.4375 1.363281 3.011719 C 1.539062 2.582031 1.792969 2.207031 2.121094 1.878906 C 2.449219 1.550781 2.824219 1.300781 3.253906 1.125 C 3.679688 0.945312 4.125 0.859375 4.585938 0.859375 L 16.8125 0.859375 C 17.273438 0.859375 17.71875 0.945312 18.148438 1.125 C 18.574219 1.300781 18.953125 1.550781 19.277344 1.878906 C 19.605469 2.207031 19.859375 2.582031 20.035156 3.011719 C 20.210938 3.4375 20.300781 3.882812 20.300781 4.347656 Z M 20.300781 4.347656 " fill-opacity="1" fill-rule="nonzero"/></g></g></g></g></g><g clip-path="url(#7986260b45)"><g mask="url(#f264b80590)"><g transform="matrix(1, 0, 0, 1, 972, 258)"><g clip-path="url(#d06ac50143)"><g clip-path="url(#40c8189686)"><path fill="#674188" d="M 19.804688 4.34375 C 19.804688 4.808594 19.714844 5.25 19.539062 5.679688 C 19.359375 6.105469 19.109375 6.484375 18.78125 6.8125 C 18.453125 7.136719 18.078125 7.390625 17.648438 7.566406 C 17.222656 7.746094 16.777344 7.832031 16.316406 7.832031 L 4.089844 7.832031 C 3.628906 7.832031 3.183594 7.746094 2.753906 7.566406 C 2.328125 7.390625 1.949219 7.136719 1.625 6.8125 C 1.296875 6.484375 1.042969 6.105469 0.867188 5.679688 C 0.691406 5.25 0.601562 4.808594 0.601562 4.34375 C 0.601562 3.882812 0.691406 3.4375 0.867188 3.007812 C 1.042969 2.582031 1.296875 2.203125 1.625 1.878906 C 1.949219 1.550781 2.328125 1.296875 2.753906 1.121094 C 3.183594 0.945312 3.628906 0.855469 4.089844 0.855469 L 16.316406 0.855469 C 16.777344 0.855469 17.222656 0.945312 17.648438 1.121094 C 18.078125 1.296875 18.453125 1.550781 18.78125 1.878906 C 19.109375 2.203125 19.359375 2.582031 19.539062 3.007812 C 19.714844 3.4375 19.804688 3.882812 19.804688 4.34375 Z M 19.804688 4.34375 " fill-opacity="1" fill-rule="nonzero"/></g></g></g></g></g><g mask="url(#9ffbc7b797)"><g transform="matrix(1, 0, 0, 1, 994, 217)"><g clip-path="url(#aa59070c8f)"><path fill="#674188" d="M 3.683594 2.234375 C 4.085938 2.003906 4.515625 1.855469 4.976562 1.796875 C 5.4375 1.738281 5.890625 1.769531 6.339844 1.890625 C 6.789062 2.011719 7.195312 2.210938 7.5625 2.496094 C 7.929688 2.777344 8.230469 3.121094 8.460938 3.523438 L 14.574219 14.160156 C 14.804688 14.5625 14.953125 14.992188 15.011719 15.453125 C 15.070312 15.914062 15.039062 16.367188 14.917969 16.816406 C 14.796875 17.265625 14.597656 17.671875 14.3125 18.042969 C 14.027344 18.410156 13.6875 18.707031 13.285156 18.941406 C 12.882812 19.171875 12.449219 19.316406 11.988281 19.375 C 11.527344 19.4375 11.074219 19.40625 10.625 19.285156 C 10.179688 19.164062 9.769531 18.960938 9.402344 18.679688 C 9.035156 18.394531 8.734375 18.050781 8.503906 17.648438 L 2.390625 7.011719 C 2.160156 6.609375 2.015625 6.179688 1.953125 5.71875 C 1.894531 5.257812 1.925781 4.804688 2.046875 4.355469 C 2.167969 3.90625 2.371094 3.5 2.652344 3.132812 C 2.9375 2.765625 3.28125 2.464844 3.683594 2.234375 Z M 3.683594 2.234375 " fill-opacity="1" fill-rule="nonzero"/></g></g></g><g mask="url(#72ee7f0a0d)"><g transform="matrix(1, 0, 0, 1, 1034, 286)"><g clip-path="url(#2a912c7eec)"><path fill="#674188" d="M 3.777344 2.886719 C 4.175781 2.65625 4.605469 2.507812 5.066406 2.449219 C 5.523438 2.386719 5.976562 2.417969 6.421875 2.539062 C 6.871094 2.65625 7.277344 2.859375 7.644531 3.140625 C 8.011719 3.421875 8.3125 3.761719 8.542969 4.164062 L 14.652344 14.75 C 14.886719 15.148438 15.03125 15.578125 15.09375 16.039062 C 15.152344 16.496094 15.121094 16.949219 15.003906 17.398438 C 14.882812 17.84375 14.683594 18.25 14.402344 18.617188 C 14.117188 18.984375 13.777344 19.285156 13.378906 19.515625 C 12.976562 19.746094 12.546875 19.894531 12.089844 19.953125 C 11.628906 20.011719 11.175781 19.984375 10.730469 19.863281 C 10.28125 19.746094 9.875 19.542969 9.507812 19.261719 C 9.140625 18.980469 8.84375 18.640625 8.609375 18.238281 L 2.5 7.652344 C 2.265625 7.25 2.121094 6.820312 2.0625 6.363281 C 2 5.902344 2.03125 5.449219 2.148438 5.003906 C 2.269531 4.558594 2.472656 4.148438 2.753906 3.785156 C 3.035156 3.417969 3.375 3.117188 3.777344 2.886719 Z M 3.777344 2.886719 " fill-opacity="1" fill-rule="nonzero"/></g></g></g><g mask="url(#ebb69624a3)"><g transform="matrix(1, 0, 0, 1, 1047, 234)"><g clip-path="url(#c9467d6c1e)"><path fill="#674188" d="M 18.625 3.417969 C 18.855469 3.820312 19 4.25 19.0625 4.707031 C 19.121094 5.164062 19.09375 5.617188 18.972656 6.066406 C 18.851562 6.511719 18.652344 6.917969 18.371094 7.285156 C 18.089844 7.652344 17.746094 7.953125 17.347656 8.183594 L 6.761719 14.296875 C 6.359375 14.527344 5.929688 14.671875 5.472656 14.734375 C 5.011719 14.792969 4.558594 14.765625 4.113281 14.644531 C 3.667969 14.523438 3.257812 14.324219 2.890625 14.042969 C 2.523438 13.761719 2.226562 13.417969 1.996094 13.019531 C 1.761719 12.617188 1.617188 12.1875 1.558594 11.730469 C 1.496094 11.269531 1.527344 10.820312 1.644531 10.371094 C 1.765625 9.925781 1.964844 9.519531 2.246094 9.152344 C 2.53125 8.785156 2.871094 8.484375 3.269531 8.253906 L 13.859375 2.140625 C 14.257812 1.910156 14.6875 1.761719 15.148438 1.703125 C 15.605469 1.644531 16.058594 1.671875 16.503906 1.792969 C 16.953125 1.910156 17.359375 2.113281 17.726562 2.394531 C 18.09375 2.675781 18.394531 3.015625 18.625 3.417969 Z M 18.625 3.417969 " fill-opacity="1" fill-rule="nonzero"/></g></g></g><g mask="url(#96643a9576)"><g transform="matrix(1, 0, 0, 1, 977, 274)"><g clip-path="url(#422e5d0fbb)"><path fill="#674188" d="M 18.910156 3.667969 C 19.140625 4.070312 19.285156 4.5 19.347656 4.957031 C 19.40625 5.417969 19.378906 5.871094 19.257812 6.316406 C 19.136719 6.765625 18.9375 7.171875 18.65625 7.539062 C 18.375 7.90625 18.03125 8.203125 17.632812 8.4375 L 7.046875 14.546875 C 6.644531 14.78125 6.214844 14.925781 5.757812 14.984375 C 5.296875 15.046875 4.84375 15.015625 4.398438 14.898438 C 3.953125 14.777344 3.542969 14.574219 3.175781 14.292969 C 2.808594 14.011719 2.511719 13.671875 2.28125 13.269531 C 2.046875 12.871094 1.902344 12.441406 1.84375 11.980469 C 1.78125 11.523438 1.8125 11.070312 1.929688 10.625 C 2.050781 10.175781 2.25 9.769531 2.53125 9.402344 C 2.816406 9.035156 3.15625 8.734375 3.554688 8.503906 L 14.144531 2.394531 C 14.542969 2.160156 14.972656 2.015625 15.433594 1.953125 C 15.890625 1.894531 16.34375 1.925781 16.789062 2.042969 C 17.238281 2.164062 17.644531 2.363281 18.011719 2.644531 C 18.378906 2.929688 18.679688 3.269531 18.910156 3.667969 Z M 18.910156 3.667969 " fill-opacity="1" fill-rule="nonzero"/></g></g></g><g mask="url(#4de4b2cc37)"><g transform="matrix(1, 0, 0, 1, 977, 234)"><g clip-path="url(#19401818f6)"><path fill="#674188" d="M 2.277344 3.417969 C 2.507812 3.015625 2.808594 2.675781 3.175781 2.394531 C 3.542969 2.113281 3.949219 1.910156 4.394531 1.792969 C 4.84375 1.671875 5.296875 1.640625 5.753906 1.703125 C 6.214844 1.761719 6.644531 1.910156 7.042969 2.140625 L 17.628906 8.253906 C 18.03125 8.484375 18.371094 8.78125 18.652344 9.148438 C 18.9375 9.515625 19.136719 9.925781 19.257812 10.371094 C 19.375 10.816406 19.40625 11.269531 19.34375 11.730469 C 19.285156 12.1875 19.140625 12.617188 18.90625 13.019531 C 18.675781 13.417969 18.378906 13.761719 18.011719 14.042969 C 17.644531 14.324219 17.234375 14.523438 16.789062 14.644531 C 16.34375 14.765625 15.890625 14.792969 15.429688 14.734375 C 14.972656 14.671875 14.542969 14.527344 14.140625 14.296875 L 3.554688 8.183594 C 3.152344 7.953125 2.8125 7.652344 2.53125 7.285156 C 2.25 6.917969 2.050781 6.511719 1.929688 6.066406 C 1.808594 5.617188 1.78125 5.164062 1.839844 4.707031 C 1.902344 4.246094 2.046875 3.816406 2.277344 3.417969 Z M 2.277344 3.417969 " fill-opacity="1" fill-rule="nonzero"/></g></g></g><g mask="url(#d136e01d59)"><g transform="matrix(1, 0, 0, 1, 1047, 274)"><g clip-path="url(#2cf375e318)"><path fill="#674188" d="M 1.992188 3.667969 C 2.222656 3.269531 2.523438 2.925781 2.890625 2.644531 C 3.257812 2.363281 3.664062 2.164062 4.109375 2.042969 C 4.558594 1.921875 5.011719 1.894531 5.46875 1.953125 C 5.929688 2.015625 6.359375 2.160156 6.757812 2.390625 L 17.34375 8.503906 C 17.746094 8.734375 18.085938 9.035156 18.367188 9.402344 C 18.652344 9.769531 18.851562 10.175781 18.972656 10.621094 C 19.089844 11.070312 19.121094 11.523438 19.058594 11.980469 C 19 12.441406 18.855469 12.871094 18.621094 13.269531 C 18.390625 13.671875 18.09375 14.011719 17.726562 14.292969 C 17.359375 14.574219 16.949219 14.777344 16.503906 14.894531 C 16.058594 15.015625 15.605469 15.046875 15.144531 14.984375 C 14.6875 14.925781 14.257812 14.777344 13.855469 14.546875 L 3.269531 8.433594 C 2.867188 8.203125 2.527344 7.90625 2.246094 7.539062 C 1.964844 7.171875 1.765625 6.761719 1.644531 6.316406 C 1.523438 5.871094 1.496094 5.417969 1.554688 4.957031 C 1.617188 4.5 1.761719 4.070312 1.992188 3.667969 Z M 1.992188 3.667969 " fill-opacity="1" fill-rule="nonzero"/></g></g></g><g mask="url(#6725a19d5a)"><g transform="matrix(1, 0, 0, 1, 1034, 217)"><g clip-path="url(#f15a860f43)"><path fill="#674188" d="M 13.378906 2.171875 C 13.777344 2.40625 14.121094 2.703125 14.402344 3.070312 C 14.683594 3.4375 14.882812 3.84375 15.003906 4.292969 C 15.121094 4.738281 15.152344 5.191406 15.09375 5.652344 C 15.03125 6.109375 14.886719 6.539062 14.65625 6.941406 L 8.542969 17.527344 C 8.3125 17.925781 8.011719 18.269531 7.644531 18.550781 C 7.277344 18.832031 6.871094 19.03125 6.421875 19.152344 C 5.976562 19.273438 5.523438 19.300781 5.066406 19.242188 C 4.605469 19.179688 4.175781 19.035156 3.777344 18.804688 C 3.375 18.570312 3.035156 18.273438 2.753906 17.90625 C 2.472656 17.539062 2.269531 17.132812 2.152344 16.683594 C 2.03125 16.238281 2 15.785156 2.0625 15.328125 C 2.121094 14.867188 2.269531 14.4375 2.5 14.039062 L 8.609375 3.449219 C 8.84375 3.050781 9.140625 2.707031 9.507812 2.425781 C 9.875 2.144531 10.28125 1.945312 10.730469 1.824219 C 11.175781 1.707031 11.628906 1.675781 12.089844 1.734375 C 12.546875 1.796875 12.976562 1.941406 13.378906 2.171875 Z M 13.378906 2.171875 " fill-opacity="1" fill-rule="nonzero"/></g></g></g><g mask="url(#eaef421a5e)"><g transform="matrix(1, 0, 0, 1, 994, 286)"><g clip-path="url(#83344d0734)"><path fill="#674188" d="M 13.125 2.886719 C 13.527344 3.117188 13.867188 3.417969 14.148438 3.78125 C 14.433594 4.148438 14.632812 4.558594 14.753906 5.003906 C 14.871094 5.449219 14.902344 5.902344 14.839844 6.363281 C 14.78125 6.820312 14.636719 7.25 14.402344 7.652344 L 8.292969 18.238281 C 8.058594 18.640625 7.761719 18.980469 7.394531 19.261719 C 7.027344 19.542969 6.621094 19.746094 6.171875 19.863281 C 5.726562 19.984375 5.273438 20.011719 4.816406 19.953125 C 4.355469 19.894531 3.925781 19.746094 3.527344 19.515625 C 3.125 19.285156 2.785156 18.984375 2.503906 18.617188 C 2.21875 18.25 2.019531 17.84375 1.898438 17.398438 C 1.78125 16.949219 1.75 16.496094 1.8125 16.039062 C 1.871094 15.578125 2.015625 15.148438 2.25 14.75 L 8.359375 4.164062 C 8.59375 3.761719 8.890625 3.421875 9.257812 3.140625 C 9.625 2.859375 10.03125 2.65625 10.480469 2.535156 C 10.925781 2.417969 11.378906 2.386719 11.835938 2.449219 C 12.296875 2.507812 12.726562 2.652344 13.125 2.886719 Z M 13.125 2.886719 " fill-opacity="1" fill-rule="nonzero"/></g></g></g><g fill="#674188" fill-opacity="1"><g transform="translate(948.38093, 423.859746)"><g><path d="M 21.605469 -53.082031 C 21.605469 -55.449219 21.507812 -58.113281 20.816406 -60.183594 C 20.128906 -62.15625 19.042969 -63.539062 17.363281 -63.539062 C 14.601562 -63.441406 13.714844 -60.578125 13.714844 -56.335938 C 13.714844 -53.871094 14.800781 -51.304688 16.378906 -48.542969 C 17.957031 -45.78125 20.027344 -42.917969 22.101562 -39.859375 C 24.566406 -36.210938 27.035156 -32.460938 28.90625 -28.808594 C 30.78125 -25.160156 32.066406 -21.410156 32.066406 -17.464844 C 32.066406 -12.628906 31.277344 -8.089844 29.007812 -4.734375 C 26.738281 -1.382812 23.085938 0.789062 17.265625 0.789062 C 10.457031 0.789062 6.609375 -1.777344 4.441406 -5.722656 C 2.269531 -9.667969 1.777344 -14.898438 1.777344 -20.324219 L 12.234375 -21.3125 C 12.234375 -18.253906 12.332031 -15.195312 13.121094 -12.925781 C 13.8125 -10.558594 14.996094 -8.976562 17.265625 -8.976562 C 20.421875 -8.976562 21.605469 -12.332031 21.605469 -16.96875 C 21.605469 -19.335938 20.421875 -22.101562 18.84375 -24.960938 C 17.957031 -26.34375 17.070312 -27.824219 16.082031 -29.304688 C 14.011719 -32.261719 11.742188 -35.617188 9.371094 -39.269531 C 7.003906 -42.917969 5.230469 -46.667969 4.144531 -50.515625 C 3.550781 -52.390625 3.257812 -54.363281 3.257812 -56.335938 C 3.257812 -60.28125 4.144531 -64.523438 6.414062 -67.78125 C 8.683594 -70.9375 12.136719 -73.207031 17.167969 -73.304688 C 23.582031 -73.40625 27.328125 -70.742188 29.402344 -66.894531 C 31.472656 -62.945312 32.066406 -58.113281 32.066406 -54.066406 Z M 21.605469 -53.082031 "/></g></g></g><g fill="#674188" fill-opacity="1"><g transform="translate(982.221382, 423.859746)"><g><path d="M 3.945312 -72.515625 L 14.601562 -72.515625 L 14.601562 -9.867188 L 28.710938 -9.867188 L 28.710938 0 L 3.945312 0 Z M 3.945312 -72.515625 "/></g></g></g><g fill="#674188" fill-opacity="1"><g transform="translate(1011.326144, 423.859746)"><g><path d="M 31.671875 -14.898438 C 31.570312 -11.9375 30.980469 -9.273438 29.894531 -7.003906 C 29.007812 -5.03125 27.625 -3.15625 25.652344 -1.675781 C 23.679688 -0.0976562 21.015625 0.789062 17.464844 0.789062 C 13.910156 0.789062 11.148438 -0.0976562 9.175781 -1.675781 C 7.203125 -3.15625 5.917969 -5.03125 5.03125 -7.003906 C 3.945312 -9.273438 3.355469 -11.9375 3.257812 -14.898438 L 3.257812 -57.617188 C 3.355469 -60.480469 3.945312 -63.144531 5.03125 -65.414062 C 5.917969 -67.386719 7.203125 -69.359375 9.175781 -70.839844 C 11.148438 -72.320312 13.910156 -73.304688 17.464844 -73.304688 C 21.015625 -73.304688 23.679688 -72.320312 25.652344 -70.839844 C 27.625 -69.359375 29.007812 -67.386719 29.894531 -65.414062 C 30.980469 -63.144531 31.570312 -60.480469 31.671875 -57.617188 Z M 21.015625 -57.617188 C 21.015625 -59.59375 20.621094 -60.972656 19.632812 -62.15625 C 19.140625 -62.652344 18.351562 -62.945312 17.464844 -62.945312 C 15.589844 -62.945312 14.699219 -61.566406 14.304688 -60.28125 C 14.011719 -59.492188 13.910156 -58.605469 13.910156 -57.617188 L 13.910156 -14.898438 C 13.910156 -12.824219 14.40625 -11.445312 15.390625 -10.359375 C 15.882812 -9.867188 16.574219 -9.570312 17.464844 -9.570312 C 19.335938 -9.570312 20.226562 -10.753906 20.621094 -12.234375 C 20.917969 -12.925781 21.015625 -13.8125 21.015625 -14.898438 Z M 21.015625 -57.617188 "/></g></g></g><g fill="#674188" fill-opacity="1"><g transform="translate(1046.251862, 423.859746)"><g><path d="M 19.238281 0 L 10.953125 0 L 1.183594 -72.515625 L 11.050781 -72.515625 L 15.292969 -34.828125 L 15.488281 -32.460938 L 16.28125 -32.460938 L 16.574219 -34.828125 L 21.113281 -72.515625 L 28.808594 -72.515625 L 33.347656 -34.828125 L 33.644531 -32.460938 L 34.433594 -32.460938 L 34.628906 -34.828125 L 38.871094 -72.515625 L 48.738281 -72.515625 L 38.972656 0 L 30.683594 0 L 25.75 -34.335938 L 25.160156 -38.578125 L 24.765625 -38.578125 L 24.171875 -34.335938 Z M 19.238281 0 "/></g></g></g><g fill="#674188" fill-opacity="1"><g transform="translate(894.755933, 511.609741)"><g><path d="M 3.945312 -72.515625 L 14.601562 -72.515625 L 14.601562 0 L 3.945312 0 Z M 3.945312 -72.515625 "/></g></g></g><g fill="#674188" fill-opacity="1"><g transform="translate(913.304058, 511.609741)"><g><path d="M 15.195312 -37.789062 L 14.304688 -41.140625 L 13.714844 -41.140625 L 13.714844 0 L 3.945312 0 L 3.945312 -72.515625 L 13.417969 -72.515625 L 23.777344 -34.730469 L 24.664062 -31.375 L 25.257812 -31.375 L 25.257812 -72.515625 L 35.023438 -72.515625 L 35.023438 0 L 25.554688 0 Z M 15.195312 -37.789062 "/></g></g></g><g fill="#674188" fill-opacity="1"><g transform="translate(952.274851, 511.609741)"><g><path d="M 0.199219 -61.566406 L 0.199219 -72.515625 L 30.980469 -72.515625 L 30.980469 -61.566406 L 20.917969 -61.566406 L 20.917969 0 L 10.261719 0 L 10.261719 -61.566406 Z M 0.199219 -61.566406 "/></g></g></g><g fill="#674188" fill-opacity="1"><g transform="translate(983.451485, 511.609741)"><g><path d="M 3.945312 -72.515625 L 28.316406 -72.515625 L 28.316406 -61.566406 L 14.601562 -61.566406 L 14.601562 -42.523438 L 24.46875 -42.523438 L 24.46875 -30.882812 L 14.601562 -30.882812 L 14.601562 -10.953125 L 28.316406 -10.953125 L 28.316406 0 L 3.945312 0 Z M 3.945312 -72.515625 "/></g></g></g><g fill="#674188" fill-opacity="1"><g transform="translate(1013.740172, 511.609741)"><g><path d="M 22.988281 0 L 17.464844 -30.585938 L 14.601562 -30.585938 L 14.601562 0 L 3.945312 0 L 3.945312 -72.515625 L 14.601562 -72.515625 C 27.328125 -72.515625 32.757812 -65.316406 32.757812 -51.601562 C 32.757812 -44.398438 30.882812 -37.886719 26.835938 -35.125 L 33.644531 0 Z M 14.601562 -40.453125 C 16.082031 -40.453125 18.054688 -40.648438 19.632812 -42.03125 C 21.210938 -43.410156 22.496094 -46.074219 22.496094 -51.207031 C 22.496094 -56.335938 21.210938 -59.097656 19.632812 -60.480469 C 18.054688 -61.863281 16.082031 -61.960938 14.601562 -61.960938 Z M 14.601562 -40.453125 "/></g></g></g><g fill="#674188" fill-opacity="1"><g transform="translate(1049.356519, 511.609741)"><g><path d="M 15.195312 -37.789062 L 14.304688 -41.140625 L 13.714844 -41.140625 L 13.714844 0 L 3.945312 0 L 3.945312 -72.515625 L 13.417969 -72.515625 L 23.777344 -34.730469 L 24.664062 -31.375 L 25.257812 -31.375 L 25.257812 -72.515625 L 35.023438 -72.515625 L 35.023438 0 L 25.554688 0 Z M 15.195312 -37.789062 "/></g></g></g><g fill="#674188" fill-opacity="1"><g transform="translate(1088.327312, 511.609741)"><g><path d="M 3.945312 -72.515625 L 28.316406 -72.515625 L 28.316406 -61.566406 L 14.601562 -61.566406 L 14.601562 -42.523438 L 24.46875 -42.523438 L 24.46875 -30.882812 L 14.601562 -30.882812 L 14.601562 -10.953125 L 28.316406 -10.953125 L 28.316406 0 L 3.945312 0 Z M 3.945312 -72.515625 "/></g></g></g><g fill="#674188" fill-opacity="1"><g transform="translate(1118.615999, 511.609741)"><g><path d="M 0.199219 -61.566406 L 0.199219 -72.515625 L 30.980469 -72.515625 L 30.980469 -61.566406 L 20.917969 -61.566406 L 20.917969 0 L 10.261719 0 L 10.261719 -61.566406 Z M 0.199219 -61.566406 "/></g></g></g><g fill="#674188" fill-opacity="1"><g transform="translate(854.759841, 599.359737)"><g><path d="M 31.671875 -24.863281 L 31.671875 -14.898438 C 31.570312 -11.9375 30.980469 -9.273438 29.894531 -7.003906 C 29.007812 -5.03125 27.625 -3.15625 25.652344 -1.675781 C 23.679688 -0.0976562 21.015625 0.789062 17.464844 0.789062 C 13.910156 0.789062 11.148438 -0.0976562 9.175781 -1.675781 C 7.203125 -3.15625 5.917969 -5.03125 5.03125 -7.003906 C 3.945312 -9.273438 3.355469 -11.9375 3.257812 -14.898438 L 3.257812 -57.617188 C 3.355469 -60.480469 3.945312 -63.144531 5.03125 -65.414062 C 5.917969 -67.386719 7.203125 -69.359375 9.175781 -70.839844 C 11.148438 -72.320312 13.910156 -73.304688 17.464844 -73.304688 C 21.015625 -73.304688 23.679688 -72.320312 25.652344 -70.839844 C 27.625 -69.359375 29.007812 -67.386719 29.894531 -65.414062 C 30.980469 -63.144531 31.570312 -60.480469 31.671875 -57.617188 L 31.671875 -47.652344 L 21.707031 -47.652344 L 21.707031 -57.617188 C 21.707031 -59.59375 21.210938 -60.972656 20.128906 -62.15625 C 19.632812 -62.652344 18.746094 -62.945312 17.660156 -62.945312 C 15.785156 -62.945312 14.898438 -61.566406 14.40625 -60.28125 C 14.109375 -59.492188 14.011719 -58.605469 13.910156 -57.617188 L 13.910156 -14.898438 C 14.011719 -12.824219 14.601562 -11.445312 15.589844 -10.359375 C 16.082031 -9.867188 16.773438 -9.570312 17.660156 -9.570312 C 19.929688 -9.570312 20.816406 -10.753906 21.3125 -12.234375 C 21.605469 -12.925781 21.707031 -13.8125 21.707031 -14.898438 L 21.707031 -24.863281 Z M 31.671875 -24.863281 "/></g></g></g><g fill="#674188" fill-opacity="1"><g transform="translate(888.896284, 599.359737)"><g><path d="M 31.671875 -14.898438 C 31.570312 -11.9375 30.980469 -9.273438 29.894531 -7.003906 C 29.007812 -5.03125 27.625 -3.15625 25.652344 -1.675781 C 23.679688 -0.0976562 21.015625 0.789062 17.464844 0.789062 C 13.910156 0.789062 11.148438 -0.0976562 9.175781 -1.675781 C 7.203125 -3.15625 5.917969 -5.03125 5.03125 -7.003906 C 3.945312 -9.273438 3.355469 -11.9375 3.257812 -14.898438 L 3.257812 -57.617188 C 3.355469 -60.480469 3.945312 -63.144531 5.03125 -65.414062 C 5.917969 -67.386719 7.203125 -69.359375 9.175781 -70.839844 C 11.148438 -72.320312 13.910156 -73.304688 17.464844 -73.304688 C 21.015625 -73.304688 23.679688 -72.320312 25.652344 -70.839844 C 27.625 -69.359375 29.007812 -67.386719 29.894531 -65.414062 C 30.980469 -63.144531 31.570312 -60.480469 31.671875 -57.617188 Z M 21.015625 -57.617188 C 21.015625 -59.59375 20.621094 -60.972656 19.632812 -62.15625 C 19.140625 -62.652344 18.351562 -62.945312 17.464844 -62.945312 C 15.589844 -62.945312 14.699219 -61.566406 14.304688 -60.28125 C 14.011719 -59.492188 13.910156 -58.605469 13.910156 -57.617188 L 13.910156 -14.898438 C 13.910156 -12.824219 14.40625 -11.445312 15.390625 -10.359375 C 15.882812 -9.867188 16.574219 -9.570312 17.464844 -9.570312 C 19.335938 -9.570312 20.226562 -10.753906 20.621094 -12.234375 C 20.917969 -12.925781 21.015625 -13.8125 21.015625 -14.898438 Z M 21.015625 -57.617188 "/></g></g></g><g fill="#674188" fill-opacity="1"><g transform="translate(923.822002, 599.359737)"><g><path d="M 15.195312 -37.789062 L 14.304688 -41.140625 L 13.714844 -41.140625 L 13.714844 0 L 3.945312 0 L 3.945312 -72.515625 L 13.417969 -72.515625 L 23.777344 -34.730469 L 24.664062 -31.375 L 25.257812 -31.375 L 25.257812 -72.515625 L 35.023438 -72.515625 L 35.023438 0 L 25.554688 0 Z M 15.195312 -37.789062 "/></g></g></g><g fill="#674188" fill-opacity="1"><g transform="translate(962.792795, 599.359737)"><g><path d="M 15.195312 -37.789062 L 14.304688 -41.140625 L 13.714844 -41.140625 L 13.714844 0 L 3.945312 0 L 3.945312 -72.515625 L 13.417969 -72.515625 L 23.777344 -34.730469 L 24.664062 -31.375 L 25.257812 -31.375 L 25.257812 -72.515625 L 35.023438 -72.515625 L 35.023438 0 L 25.554688 0 Z M 15.195312 -37.789062 "/></g></g></g><g fill="#674188" fill-opacity="1"><g transform="translate(1001.763588, 599.359737)"><g><path d="M 3.945312 -72.515625 L 28.316406 -72.515625 L 28.316406 -61.566406 L 14.601562 -61.566406 L 14.601562 -42.523438 L 24.46875 -42.523438 L 24.46875 -30.882812 L 14.601562 -30.882812 L 14.601562 -10.953125 L 28.316406 -10.953125 L 28.316406 0 L 3.945312 0 Z M 3.945312 -72.515625 "/></g></g></g><g fill="#674188" fill-opacity="1"><g transform="translate(1032.052275, 599.359737)"><g><path d="M 31.671875 -24.863281 L 31.671875 -14.898438 C 31.570312 -11.9375 30.980469 -9.273438 29.894531 -7.003906 C 29.007812 -5.03125 27.625 -3.15625 25.652344 -1.675781 C 23.679688 -0.0976562 21.015625 0.789062 17.464844 0.789062 C 13.910156 0.789062 11.148438 -0.0976562 9.175781 -1.675781 C 7.203125 -3.15625 5.917969 -5.03125 5.03125 -7.003906 C 3.945312 -9.273438 3.355469 -11.9375 3.257812 -14.898438 L 3.257812 -57.617188 C 3.355469 -60.480469 3.945312 -63.144531 5.03125 -65.414062 C 5.917969 -67.386719 7.203125 -69.359375 9.175781 -70.839844 C 11.148438 -72.320312 13.910156 -73.304688 17.464844 -73.304688 C 21.015625 -73.304688 23.679688 -72.320312 25.652344 -70.839844 C 27.625 -69.359375 29.007812 -67.386719 29.894531 -65.414062 C 30.980469 -63.144531 31.570312 -60.480469 31.671875 -57.617188 L 31.671875 -47.652344 L 21.707031 -47.652344 L 21.707031 -57.617188 C 21.707031 -59.59375 21.210938 -60.972656 20.128906 -62.15625 C 19.632812 -62.652344 18.746094 -62.945312 17.660156 -62.945312 C 15.785156 -62.945312 14.898438 -61.566406 14.40625 -60.28125 C 14.109375 -59.492188 14.011719 -58.605469 13.910156 -57.617188 L 13.910156 -14.898438 C 14.011719 -12.824219 14.601562 -11.445312 15.589844 -10.359375 C 16.082031 -9.867188 16.773438 -9.570312 17.660156 -9.570312 C 19.929688 -9.570312 20.816406 -10.753906 21.3125 -12.234375 C 21.605469 -12.925781 21.707031 -13.8125 21.707031 -14.898438 L 21.707031 -24.863281 Z M 31.671875 -24.863281 "/></g></g></g><g fill="#674188" fill-opacity="1"><g transform="translate(1066.188718, 599.359737)"><g><path d="M 0.199219 -61.566406 L 0.199219 -72.515625 L 30.980469 -72.515625 L 30.980469 -61.566406 L 20.917969 -61.566406 L 20.917969 0 L 10.261719 0 L 10.261719 -61.566406 Z M 0.199219 -61.566406 "/></g></g></g><g fill="#674188" fill-opacity="1"><g transform="translate(1097.365352, 599.359737)"><g><path d="M 3.945312 -72.515625 L 14.601562 -72.515625 L 14.601562 0 L 3.945312 0 Z M 3.945312 -72.515625 "/></g></g></g><g fill="#674188" fill-opacity="1"><g transform="translate(1115.913477, 599.359737)"><g><path d="M 31.671875 -14.898438 C 31.570312 -11.9375 30.980469 -9.273438 29.894531 -7.003906 C 29.007812 -5.03125 27.625 -3.15625 25.652344 -1.675781 C 23.679688 -0.0976562 21.015625 0.789062 17.464844 0.789062 C 13.910156 0.789062 11.148438 -0.0976562 9.175781 -1.675781 C 7.203125 -3.15625 5.917969 -5.03125 5.03125 -7.003906 C 3.945312 -9.273438 3.355469 -11.9375 3.257812 -14.898438 L 3.257812 -57.617188 C 3.355469 -60.480469 3.945312 -63.144531 5.03125 -65.414062 C 5.917969 -67.386719 7.203125 -69.359375 9.175781 -70.839844 C 11.148438 -72.320312 13.910156 -73.304688 17.464844 -73.304688 C 21.015625 -73.304688 23.679688 -72.320312 25.652344 -70.839844 C 27.625 -69.359375 29.007812 -67.386719 29.894531 -65.414062 C 30.980469 -63.144531 31.570312 -60.480469 31.671875 -57.617188 Z M 21.015625 -57.617188 C 21.015625 -59.59375 20.621094 -60.972656 19.632812 -62.15625 C 19.140625 -62.652344 18.351562 -62.945312 17.464844 -62.945312 C 15.589844 -62.945312 14.699219 -61.566406 14.304688 -60.28125 C 14.011719 -59.492188 13.910156 -58.605469 13.910156 -57.617188 L 13.910156 -14.898438 C 13.910156 -12.824219 14.40625 -11.445312 15.390625 -10.359375 C 15.882812 -9.867188 16.574219 -9.570312 17.464844 -9.570312 C 19.335938 -9.570312 20.226562 -10.753906 20.621094 -12.234375 C 20.917969 -12.925781 21.015625 -13.8125 21.015625 -14.898438 Z M 21.015625 -57.617188 "/></g></g></g><g fill="#674188" fill-opacity="1"><g transform="translate(1150.839196, 599.359737)"><g><path d="M 15.195312 -37.789062 L 14.304688 -41.140625 L 13.714844 -41.140625 L 13.714844 0 L 3.945312 0 L 3.945312 -72.515625 L 13.417969 -72.515625 L 23.777344 -34.730469 L 24.664062 -31.375 L 25.257812 -31.375 L 25.257812 -72.515625 L 35.023438 -72.515625 L 35.023438 0 L 25.554688 0 Z M 15.195312 -37.789062 "/></g></g></g></svg>