<svg xmlns="http://www.w3.org/2000/svg" xmlns:xlink="http://www.w3.org/1999/xlink" width="1920" zoomAndPan="magnify" viewBox="0 0 1440 809.999993" height="1080" preserveAspectRatio="xMidYMid meet" version="1.0"><defs><clipPath id="686641aba4"><path d="M 315 0 L 1125 0 L 1125 810 L 315 810 Z M 315 0 " clip-rule="nonzero"/></clipPath><clipPath id="52a3ddc2b0"><path d="M 720 0 C 496.324219 0 315 181.324219 315 405 C 315 628.675781 496.324219 810 720 810 C 943.675781 810 1125 628.675781 1125 405 C 1125 181.324219 943.675781 0 720 0 " clip-rule="nonzero"/></clipPath><clipPath id="d906dfd0cd"><path d="M 451.054688 395 L 989.542969 395 L 989.542969 687.53125 L 451.054688 687.53125 Z M 451.054688 395 " clip-rule="nonzero"/></clipPath><clipPath id="2febff9cf1"><path d="M 572 122.710938 L 869 122.710938 L 869 419 L 572 419 Z M 572 122.710938 " clip-rule="nonzero"/></clipPath></defs><g clip-path="url(#686641aba4)"><g clip-path="url(#52a3ddc2b0)"><path fill="#c3acd0" d="M 315 0 L 1125 0 L 1125 810 L 315 810 Z M 315 0 " fill-opacity="1" fill-rule="nonzero"/></g></g><g clip-path="url(#d906dfd0cd)"><path fill="#674188" d="M 902.375 430.121094 L 856.625 397.367188 L 840.988281 419.242188 L 886.738281 452.113281 C 934.226562 486.023438 962.488281 541.117188 962.488281 599.453125 L 962.488281 647.371094 C 962.488281 654.777344 956.464844 660.796875 949.054688 660.796875 L 491.546875 660.796875 C 484.132812 660.796875 478.109375 654.777344 478.109375 647.371094 L 478.109375 596.789062 C 478.109375 540.078125 505.214844 485.910156 550.617188 451.765625 L 597.292969 416.695312 L 581.078125 395.167969 L 534.402344 430.238281 C 482.28125 469.242188 451.125 531.511719 451.125 596.675781 L 451.125 647.253906 C 451.125 669.476562 469.191406 687.53125 491.546875 687.53125 L 949.054688 687.53125 C 971.292969 687.53125 989.476562 669.476562 989.476562 647.136719 L 989.476562 599.222656 C 989.476562 532.320312 956.929688 469.125 902.375 430.121094 Z M 902.375 430.121094 " fill-opacity="1" fill-rule="nonzero"/></g><g clip-path="url(#2febff9cf1)"><path fill="#674188" d="M 720.300781 418.546875 C 801.957031 418.546875 868.324219 352.226562 868.324219 270.628906 C 868.324219 189.03125 801.957031 122.710938 720.300781 122.710938 C 638.644531 122.710938 572.277344 189.03125 572.277344 270.628906 C 572.277344 352.226562 638.644531 418.546875 720.300781 418.546875 Z M 720.300781 149.5625 C 787.015625 149.5625 841.453125 203.960938 841.453125 270.628906 C 841.453125 337.296875 787.015625 391.695312 720.300781 391.695312 C 653.585938 391.695312 599.148438 337.410156 599.148438 270.628906 C 599.148438 203.84375 653.46875 149.5625 720.300781 149.5625 Z M 720.300781 149.5625 " fill-opacity="1" fill-rule="nonzero"/></g></svg>